<?xml version="1.0" encoding="utf-8"?>
<!-- Generator: Adobe Illustrator 26.0.3, SVG Export Plug-In . SVG Version: 6.00 Build 0)  -->
<svg version="1.1" id="Layer_1" xmlns="http://www.w3.org/2000/svg" xmlns:xlink="http://www.w3.org/1999/xlink" x="0px" y="0px"
	 viewBox="0 0 103.23 103.23" style="enable-background:new 0 0 103.23 103.23;" xml:space="preserve">
<style type="text/css">
	.st0{fill:#91E79C;}
	.st1{fill:#FFFFFF;}
</style>
<circle class="st0" cx="51.6" cy="54.3" r="42.35"/>
<g>
	<path class="st1" d="M67.51,76.18H36.84v-6L51,54.18c2.11-2.49,3.61-4.6,4.5-6.32c0.89-1.73,1.33-3.31,1.33-4.76
		c0-1.88-0.47-3.39-1.41-4.52c-0.94-1.13-2.36-1.69-4.24-1.69c-1.99,0-3.53,0.72-4.61,2.17c-1.09,1.44-1.63,3.28-1.63,5.49h-8.92
		l-0.06-0.19c-0.11-4.06,1.23-7.5,4.02-10.31c2.78-2.81,6.52-4.22,11.21-4.22s8.33,1.2,10.92,3.59c2.59,2.4,3.89,5.61,3.89,9.65
		c0,2.74-0.73,5.24-2.18,7.5c-1.46,2.26-3.96,5.39-7.52,9.38l-7.54,9.04l0.06,0.16h18.68V76.18z"/>
</g>
</svg>
