<?xml version="1.0" encoding="utf-8"?>
<!-- Generator: Adobe Illustrator 26.0.3, SVG Export Plug-In . SVG Version: 6.00 Build 0)  -->
<svg version="1.1" id="Layer_1" xmlns="http://www.w3.org/2000/svg" xmlns:xlink="http://www.w3.org/1999/xlink" x="0px" y="0px"
	 viewBox="0 0 103.23 103.23" style="enable-background:new 0 0 103.23 103.23;" xml:space="preserve">
<style type="text/css">
	.st0{fill:#91E79C;}
	.st1{fill:#FFFFFF;}
</style>
<circle class="st0" cx="51.6" cy="54.3" r="42.35"/>
<g>
	<path class="st1" d="M51.35,49.31c2.18,0,3.79-0.56,4.85-1.69s1.59-2.72,1.59-4.77c0-1.72-0.55-3.14-1.66-4.27
		s-2.66-1.69-4.64-1.69c-1.68,0-3.08,0.51-4.22,1.54s-1.71,2.33-1.71,3.92h-8.85l-0.06-0.19c-0.13-3.58,1.26-6.53,4.14-8.85
		c2.89-2.32,6.46-3.48,10.71-3.48c4.73,0,8.48,1.11,11.27,3.34c2.78,2.23,4.17,5.43,4.17,9.59c0,2.09-0.6,4.01-1.8,5.76
		c-1.2,1.75-2.85,3.12-4.94,4.13c2.39,0.9,4.23,2.27,5.53,4.1c1.3,1.83,1.95,4.04,1.95,6.64c0,4.19-1.51,7.48-4.54,9.87
		c-3.02,2.4-6.9,3.59-11.63,3.59c-4.17,0-7.81-1.13-10.92-3.39c-3.12-2.26-4.62-5.43-4.52-9.51l0.06-0.19h8.92
		c0,1.72,0.6,3.15,1.8,4.32c1.2,1.16,2.76,1.74,4.66,1.74c2.09,0,3.79-0.62,5.08-1.85c1.3-1.23,1.95-2.79,1.95-4.68
		c0-2.41-0.61-4.19-1.82-5.35c-1.21-1.16-2.99-1.74-5.34-1.74h-5.05v-6.87H51.35z"/>
</g>
</svg>
