<svg id="Grupo_68" data-name="Grupo 68" xmlns="http://www.w3.org/2000/svg" xmlns:xlink="http://www.w3.org/1999/xlink" width="472.856" height="443.626" viewBox="0 0 472.856 443.626">
  <defs>
    <clipPath id="clip-path">
      <rect id="Retângulo_193" data-name="Retângulo 193" width="472.856" height="443.626" fill="none"/>
    </clipPath>
  </defs>
  <g id="Grupo_67" data-name="Grupo 67" clip-path="url(#clip-path)">
    <path id="Caminho_271" data-name="Caminho 271" d="M138.965,286.782,232.21,127.233h19.527c20.37,14.768,22.736,16.54,26.8,20.4.159-.174.319-.382.475-.545l6.553,4.761c-2.875,12.914-14.484,38.832-16.733,42.366-1.922,3.018-4.594,5.756-5.722,9.032-1.5,4.35,0,8.9-1.763,13.2-2.108,5.123-7.992,8.083-12.064,12.2-11.289,11.417-8.235,30.548-20.638,40.183-2.316,1.8-5,3.105-7.255,4.974-6.763,5.608-8.46,15.131-15.282,20.672-2.677,2.173-5.966,3.568-8.467,5.927-3.272,3.086-4.725,7.352-7.132,11.043a28.287,28.287,0,0,1-15.741,11.287,36.662,36.662,0,0,1-6.424,2.311,30.626,30.626,0,0,1-19.836-1.258c-14.152-6.178-18.426-22.743-9.544-37" transform="translate(-42.024 89.961)" fill="#ffe97b"/>
    <path id="Caminho_272" data-name="Caminho 272" d="M230.779,298.5c2.823,20.7,8.249,36.649,14.235,51.111H72.109q.661-5.7,1.287-11.927c4-39.911,2.236-72,.816-97.779-1.033-18.8-1.927-35.039-.512-49.954-.014-.2-.014-.413-.014-.645-.031-4.409.341-43.627,22.487-62.673,30.968-26.63,64.844-27.718,103.613-3.3l8.761,5.814c32.246,23.16,38.935,43.846,38.059,47.446-.263,2.427-22.675,71.715-15.828,121.91" transform="translate(103.081 74.81)" fill="#ffe97b"/>
    <path id="Caminho_273" data-name="Caminho 273" d="M174.894,125.859c0,10.724-14.2,19.418-31.714,19.418s-31.715-8.694-31.715-19.418,14.2-19.418,31.715-19.418,31.714,8.694,31.714,19.418" transform="translate(107.684 75.26)" fill="#f48f7d"/>
    <path id="Caminho_274" data-name="Caminho 274" d="M96.589,129.473l.476-.007a50.758,50.758,0,0,1,49.076,34.87,36.414,36.414,0,0,1,1.18,4.143c.533,3.216.171,6.64,1.62,9.606,1.927,3.94,6.731,6.391,8.37,10.435,1.953,4.828-1.161,10.166-1.753,15.341-1.639,14.356,15.6,26.424,11.6,40.107-.748,2.555-2.2,4.957-2.839,7.53-1.912,7.718,3.74,15.48,1.724,23.18-.792,3.02-2.73,5.816-3.221,8.873-.644,4,1.258,7.858,1.859,11.821.888,5.847-1.432,11.982-5.787,16.692a30.741,30.741,0,0,1-4.1,5.164,35.81,35.81,0,0,1-18.991,9.923c-17.54,3.288-33.947-6.27-36.64-21.35l-3.17-17.723c-4.2-23.51-14.64-56.413-37.074-112.76C50.23,153.5,69.6,129.885,96.589,129.473" transform="translate(208.108 91.536)" fill="#ffe97b"/>
    <path id="Caminho_275" data-name="Caminho 275" d="M78.677,170.864c4.256-4.136,7.943-8.8,12.967-11.931.275.418.572.869.908,1.367l89.738,115.6c5.809,8.592,3.214,19.334-5.8,24s-21.031,1.482-26.842-7.11L79.732,182.738c-1.9-2.813-4.129-5.428-5.335-8.052,1.468-1.226,2.905-2.486,4.28-3.822" transform="translate(160.465 112.375)" fill="#f48f7d"/>
    <path id="Caminho_276" data-name="Caminho 276" d="M188.1,227.894l23.815-56.705c3.225-9.252,4.618-15.488,13.161-13.237a13.928,13.928,0,0,1,8.469,6.359c2.4,3.986-.372,8.892-2.194,14.124l-15.772,49.459Z" transform="translate(-82.717 111.355)" fill="#f48f7d"/>
    <path id="Caminho_277" data-name="Caminho 277" d="M125.186,133.317c5.034,29.612,32.946,52.279,66.661,52.279s61.625-22.666,66.659-52.279h2.231c-1.5,32.987-31.762,59.32-68.89,59.32s-67.393-26.333-68.89-59.32Z" transform="translate(2.223 94.263)" fill="#3eba79"/>
    <path id="Caminho_278" data-name="Caminho 278" d="M190.925,185.6c-33.713,0-61.625-22.666-66.661-52.279H257.585c-5.036,29.612-32.948,52.279-66.661,52.279" transform="translate(3.144 94.263)" fill="#f94235"/>
    <path id="Caminho_279" data-name="Caminho 279" d="M130.992,148.545a3.269,3.269,0,0,0-2.217,4.112l4.961,15.715a3.423,3.423,0,0,0,4.213,2.217,3.267,3.267,0,0,0,2.217-4.111l-4.959-15.715a3.425,3.425,0,0,0-4.215-2.219" transform="translate(112.971 104.933)" fill="#f48f7d"/>
    <path id="Caminho_280" data-name="Caminho 280" d="M133.47,178.99c-2.226-1.847-4.3-3.935-5-6.154a8.369,8.369,0,0,1,.225-4.908,38.862,38.862,0,0,1,5.236-11.306c2.165-3.213,5.632-6.446,11.069-5.932a20.466,20.466,0,0,1,13.109,7.113c5.988,6.874,8.064,9.379,9.022,16.722,1.2,9.2-3.269,14.918-15.794,11.28-6.446-1.873-13.023-2.8-17.864-6.816" transform="translate(86.717 106.509)" fill="#f48f7d"/>
    <path id="Caminho_281" data-name="Caminho 281" d="M166.543,159.239l-24.5-6.741a3.064,3.064,0,1,1,1.629-5.906l24.5,6.743a3.063,3.063,0,1,1-1.629,5.9" transform="translate(63.849 103.568)" fill="#f48f7d"/>
    <path id="Caminho_282" data-name="Caminho 282" d="M169.266,163.53l-24.5-6.743a3.064,3.064,0,1,1,1.63-5.9l24.5,6.743a3.063,3.063,0,1,1-1.629,5.9" transform="translate(56.479 106.602)" fill="#f48f7d"/>
    <path id="Caminho_283" data-name="Caminho 283" d="M169.267,167.042l-24.5-6.741a3.064,3.064,0,1,1,1.63-5.906l24.5,6.743a3.063,3.063,0,1,1-1.629,5.9" transform="translate(56.477 109.085)" fill="#f48f7d"/>
    <path id="Caminho_284" data-name="Caminho 284" d="M168.481,179.519l-15.794-4.8a17.835,17.835,0,0,1-10.968-9.38c-1.531-3.247-2.506-6.372-2.274-7.212l2.825-.8c.447-1.623,5.046-1.579,6.707-1.122l23.37,16.178a3.1,3.1,0,0,1,2.2,3.783c-.447,1.623-4.409,3.819-6.07,3.361" transform="translate(60.214 110.246)" fill="#f48f7d"/>
    <path id="Caminho_285" data-name="Caminho 285" d="M202.339,150.212a3.267,3.267,0,0,1,2.217,4.111L199.6,170.04a3.423,3.423,0,0,1-4.213,2.217,3.267,3.267,0,0,1-2.217-4.111l4.959-15.715a3.425,3.425,0,0,1,4.215-2.219" transform="translate(-61.339 106.111)" fill="#f48f7d"/>
    <path id="Caminho_286" data-name="Caminho 286" d="M211.225,180.657c2.226-1.847,4.3-3.935,5-6.154A8.368,8.368,0,0,0,216,169.6a38.863,38.863,0,0,0-5.236-11.306c-2.165-3.213-5.632-6.446-11.069-5.932a20.466,20.466,0,0,0-13.109,7.113c-5.988,6.874-8.064,9.379-9.022,16.722-1.2,9.2,3.269,14.918,15.794,11.28,6.446-1.873,13.023-2.8,17.864-6.816" transform="translate(-46.449 107.688)" fill="#f48f7d"/>
    <path id="Caminho_287" data-name="Caminho 287" d="M174.685,160.906l24.5-6.743a3.063,3.063,0,1,0-1.629-5.9L173.056,155a3.063,3.063,0,1,0,1.629,5.9" transform="translate(-20.114 104.747)" fill="#f48f7d"/>
    <path id="Caminho_288" data-name="Caminho 288" d="M171.962,165.2l24.5-6.743a3.064,3.064,0,1,0-1.63-5.9l-24.5,6.743a3.063,3.063,0,1,0,1.629,5.9" transform="translate(-12.744 107.78)" fill="#f48f7d"/>
    <path id="Caminho_289" data-name="Caminho 289" d="M171.961,168.709l24.5-6.741a3.064,3.064,0,1,0-1.63-5.906l-24.5,6.743a3.063,3.063,0,1,0,1.629,5.9" transform="translate(-12.741 110.264)" fill="#f48f7d"/>
    <path id="Caminho_290" data-name="Caminho 290" d="M174.607,181.186l15.794-4.8A17.834,17.834,0,0,0,201.368,167c1.531-3.247,2.506-6.372,2.274-7.214l-2.825-.8c-.447-1.623-5.046-1.579-6.707-1.122l-23.37,16.178a3.1,3.1,0,0,0-2.2,3.783c.447,1.623,4.409,3.819,6.07,3.361" transform="translate(-18.339 111.425)" fill="#f48f7d"/>
    <path id="Caminho_291" data-name="Caminho 291" d="M162.88,219.7a24.068,24.068,0,0,0,7.359,1.642,19.1,19.1,0,1,1-4.082,37.958,24.335,24.335,0,0,0-7.508-.034,20.539,20.539,0,1,1,4.23-39.566" transform="translate(54.061 154.355)" fill="#4fc972"/>
    <path id="Caminho_292" data-name="Caminho 292" d="M153.843,239.495a18.211,18.211,0,1,0,18.209-18.387,18.3,18.3,0,0,0-18.209,18.387" transform="translate(19.973 156.337)" fill="#fc5810"/>
    <path id="Caminho_293" data-name="Caminho 293" d="M148.907,232.672a.852.852,0,0,0,.773-.492c.271-.577,6.531-14.266-2.1-24.8a.854.854,0,1,0-1.321,1.082c7.96,9.713,1.941,22.864,1.879,23a.852.852,0,0,0,.772,1.215" transform="translate(71.391 146.409)" fill="#a54220"/>
    <path id="Caminho_294" data-name="Caminho 294" d="M115.47,229.628a3.894,3.894,0,1,0,3.894-3.894,3.893,3.893,0,0,0-3.894,3.894" transform="translate(152.484 159.608)" fill="#9b5799"/>
    <path id="Caminho_295" data-name="Caminho 295" d="M118.532,225.443a5.335,5.335,0,1,0,5.335-5.335,5.334,5.334,0,0,0-5.335,5.335" transform="translate(141.313 155.63)" fill="#9b5799"/>
    <path id="Caminho_296" data-name="Caminho 296" d="M139.042,230.363a7.255,7.255,0,1,0-7.255,7.255,7.255,7.255,0,0,0,7.255-7.255" transform="translate(121.23 157.751)" fill="#9b5799"/>
    <path id="Caminho_297" data-name="Caminho 297" d="M127.792,238.926a7.255,7.255,0,1,0-7.255,7.255,7.255,7.255,0,0,0,7.255-7.255" transform="translate(151.685 163.805)" fill="#9b5799"/>
    <path id="Caminho_298" data-name="Caminho 298" d="M120.532,235.039a5.868,5.868,0,1,0,5.869-5.869,5.869,5.869,0,0,0-5.869,5.869" transform="translate(134.832 162.037)" fill="#9b5799"/>
    <path id="Caminho_299" data-name="Caminho 299" d="M128.157,222.572a4.588,4.588,0,1,0,4.589-4.589,4.589,4.589,0,0,0-4.589,4.589" transform="translate(116.752 154.127)" fill="#9b5799"/>
    <path id="Caminho_300" data-name="Caminho 300" d="M125.969,239.259a4.588,4.588,0,1,0,4.589-4.589,4.589,4.589,0,0,0-4.589,4.589" transform="translate(122.675 165.926)" fill="#9b5799"/>
    <path id="Caminho_301" data-name="Caminho 301" d="M147.57,237.377a8.269,8.269,0,1,0-8.269,8.269,8.27,8.27,0,0,0,8.269-8.269" transform="translate(101.606 161.993)" fill="#9b5799"/>
    <path id="Caminho_302" data-name="Caminho 302" d="M233.417,238.379a7.811,7.811,0,0,1-7.782,7.682H115.378a7.811,7.811,0,0,1-7.783-7.682Z" transform="translate(55.767 168.548)" fill="#001443"/>
    <path id="Caminho_303" data-name="Caminho 303" d="M120.019,37.258a30.472,30.472,0,0,0,59.213-14.394,30.472,30.472,0,0,0-59.213,14.394" transform="translate(89.342 0)" fill="#a54220"/>
    <path id="Caminho_304" data-name="Caminho 304" d="M223.76,124.036c2.7-5.8,5.712-11.545,8.585-17.262,9.063-18.047,19.286-40.993-13.388-74.027-12.374-12.511-35.647-11.335-38.9-11.026-2.793.265-5.545.707-8.313,1.106l-.183.036a133.365,133.365,0,0,0-15.913,4.867c-.683.258-1.379.575-2.081.908.005.251-.886.874-3.1,1.514l-2.3,1.011a113.75,113.75,0,0,0-9.7,6.692L134.466,41.3a79.374,79.374,0,0,0-5.575,6.284l-.092.116c-.017.031-.029.056-.046.089-.142.27-.309.615-.487,1,0,.251,0,.5-.007.751-.326,10.314-11.492,20.063-6.784,29.372,1.1,2.183,3.061,4.174,2.943,6.591-.12,2.456-2.388,4.382-2.781,6.811-.732,4.554,5.022,7.9,6.825,11.96.007.048.019.119.036.21a19.128,19.128,0,0,0,2.233,6.005c16.115,27.866,31.338,45.748,53.16,47.552,18.73,1.552,35.468-24.52,39.87-34" transform="translate(26.14 15.235)" fill="#a54220"/>
    <path id="Caminho_305" data-name="Caminho 305" d="M127.843,68.307c-.1-3.2,1.012-6.331,2.112-9.375q1.992-5.523,3.986-11.043c1.162-3.22,2.364-6.507,4.6-9.182,3.826-4.587,10.034-6.654,15.952-8.247,5.872-1.579,17.94-7.39,23.928-8.477C189.3,20,201.5,22.048,212.337,24.04s14.222,8.764,19.937,17.675c3.585,5.592,4.9,13.359.478,18.476a19.787,19.787,0,0,1-7.062,4.7,64.509,64.509,0,0,1-26.053,5.594c-7.538.022-15.072-1.277-22.572-.5a40.38,40.38,0,0,0-29.573,18.006c-1.557,2.468-3.006,5.283-5.749,6.506-6.965,3.1-6.168-6.35-7.33-9.653-1.973-5.6-6.374-10.389-6.569-16.533" transform="translate(19.077 14.973)" fill="#a54220"/>
    <path id="Caminho_306" data-name="Caminho 306" d="M143.829,46.095l.615.145c6.376,1.531,61.161,15.128,73.322,33.262L221.916,94.4c6.275,22.523-5.913,43.342-26.335,49.011-14.587,4.051-25.857-.266-36.058-11.567a68.2,68.2,0,0,1-14.853-27.6L134.179,66.36C130.56,53.376,137.3,56,143.829,46.095" transform="translate(21.964 32.592)" fill="#f48f7d"/>
    <path id="Caminho_307" data-name="Caminho 307" d="M121.789,81.316l28.025-11.128a3.815,3.815,0,0,1,.388-.128c2.453-.669,5.34,1.209,6.572,4.274l24.938,62.076a19.375,19.375,0,0,1-.261,15.13,19.913,19.913,0,0,1-11.041,10.567,20.3,20.3,0,0,1-2.106.7,19.891,19.891,0,0,1-23.75-11.644L119.616,89.087a7.406,7.406,0,0,1-.256-4.971,4.324,4.324,0,0,1,2.429-2.8" transform="translate(86.517 49.441)" fill="#f48f7d"/>
    <path id="Caminho_308" data-name="Caminho 308" d="M154.946,70.535c.626,2.293,2.361,3.817,3.873,3.406s2.229-2.6,1.6-4.9-2.361-3.817-3.873-3.406-2.229,2.6-1.6,4.9" transform="translate(48.092 46.362)" fill="#001443"/>
    <path id="Caminho_309" data-name="Caminho 309" d="M161.779,65.61l-4.659,1.27,3.645,2.047Z" transform="translate(42.862 46.39)" fill="#001443"/>
    <path id="Caminho_310" data-name="Caminho 310" d="M175.857,76.233c.626,2.293,2.361,3.817,3.873,3.406s2.229-2.6,1.6-4.9-2.361-3.817-3.873-3.406-2.229,2.6-1.6,4.9" transform="translate(-8.515 50.391)" fill="#001443"/>
    <path id="Caminho_311" data-name="Caminho 311" d="M182.691,71.308l-4.659,1.268,3.645,2.048Z" transform="translate(-13.747 50.419)" fill="#001443"/>
    <path id="Caminho_312" data-name="Caminho 312" d="M134.279,65.562c5.712-1.588,11.876,2.625,13.766,9.408s-1.209,13.566-6.922,15.152-11.876-2.625-13.766-9.406,1.209-13.568,6.922-15.154" transform="translate(107.796 46.119)" fill="#f48f7d"/>
    <path id="Caminho_313" data-name="Caminho 313" d="M166.538,71.686a31.9,31.9,0,0,1,.959,6.77,53.272,53.272,0,0,1-.133,6.688c-.1,1.11-.215,2.217-.374,3.322l-.126.828c-.024.128-.049.082-.065.145a.469.469,0,0,0,.026.283c-.178.08.708.171,1.2.273.562.1,1.122.215,1.683.341a26.144,26.144,0,0,1,3.361.985,26.7,26.7,0,0,1-3.4.889c-.567.111-1.132.21-1.7.3l-.847.118a3.077,3.077,0,0,1-1.314-.067,3.385,3.385,0,0,1-2.241-2.026,3.569,3.569,0,0,1-.244-1.5l.012-.836c.024-1.115.09-2.226.178-3.337a53.093,53.093,0,0,1,.966-6.625,32.349,32.349,0,0,1,2.062-6.547" transform="translate(21.003 50.686)" fill="#e56e5e"/>
    <path id="Caminho_314" data-name="Caminho 314" d="M132.477,118.1a34.517,34.517,0,0,0,7.159-1.084,19.113,19.113,0,0,0,6.516-2.112,50.943,50.943,0,0,0,11.567-8.278,61.354,61.354,0,0,0,9.266-10.857l1.883-3.025,1.688-3.132,2.028-3.008q.924-1.562,1.924-3.143-.284,1.813-.644,3.655c-.3,1.2-.659,2.392-1,3.607-.557,1.108-1.186,2.18-1.765,3.276l-1.968,3.161a63.92,63.92,0,0,1-9.653,11.313,53.481,53.481,0,0,1-12.182,8.7,22.68,22.68,0,0,1-7.368,2.392,23.02,23.02,0,0,1-7.456-1.468" transform="translate(72.201 59.014)" fill="#e56e5e"/>
    <path id="Caminho_315" data-name="Caminho 315" d="M152.958,65.545a1.281,1.281,0,0,1-.964-.357,1.261,1.261,0,0,1-.017-1.8c7.658-7.752,19.43-3.892,19.928-3.725a1.261,1.261,0,0,1,.792,1.615,1.3,1.3,0,0,1-1.64.8c-.108-.036-10.737-3.5-17.24,3.088a1.3,1.3,0,0,1-.859.384" transform="translate(41.285 41.402)" fill="#a54220"/>
    <path id="Caminho_316" data-name="Caminho 316" d="M176.861,68.732a1.269,1.269,0,0,1-.6-2.427c6.844-3.11,14.431-.917,14.751-.823a1.263,1.263,0,0,1,.854,1.584,1.308,1.308,0,0,1-1.61.855c-.068-.02-6.99-2.006-12.928.7a1.342,1.342,0,0,1-.471.114" transform="translate(-18.674 45.707)" fill="#a54220"/>
    <path id="Caminho_317" data-name="Caminho 317" d="M163.8,91.427a12.511,12.511,0,0,0,7.421-4.771l3.086-.724c.628,4.1-3.095,8.394-8.72,9.749-5.693,1.372-11.046-.8-12.275-4.829l1.545-.362a12.511,12.511,0,0,0,8.943.937" transform="translate(36.76 60.759)" fill="#e56e5e"/>
    <path id="Caminho_318" data-name="Caminho 318" d="M164.106,91.127a12.511,12.511,0,0,1-8.943-.937l16.364-3.834a12.511,12.511,0,0,1-7.421,4.771" transform="translate(36.456 61.059)" fill="#fff"/>
    <path id="Caminho_319" data-name="Caminho 319" d="M110,178.858l8.984,12.769a234.156,234.156,0,0,0,17.692,22.142l36.036,47.069c7.7,10.155,12.083,22.509,4.7,30.754-4.353,4.86-11.813,9.3-11.813,9.3-7.992,5.608-17.462,1.9-26.333-6.178-3.083-2.733-7.11-3.354-10.034-6.226-3.491-3.424-4.234-8.761-6.39-13.225-5.9-12.209-21.949-17.139-26.267-29.827-.8-2.337-1.1-4.752-1.968-7.072-2.6-6.955-9.7-11.729-12.236-18.7-1-2.735-1.2-5.621-2.392-8.3-1.557-3.506-4.548-6.142-6.82-9.247-4.739-6.475-5.993-15.311-3.313-21.511.075-.4.13-.809.23-1.2a16.379,16.379,0,0,1,8.2-10.55c9.879-5.34,24.085-.859,31.727,10.005" transform="translate(174.779 117.797)" fill="#ffe97b"/>
    <path id="Caminho_320" data-name="Caminho 320" d="M172.278,301.205a16.131,16.131,0,0,1-4.79,2.1,14.691,14.691,0,0,1-5.172.212,23.352,23.352,0,0,1-9.568-3.839,41.941,41.941,0,0,1-4.164-3.134c-.678-.545-1.3-1.154-1.953-1.733a15.24,15.24,0,0,0-2.161-1.7c-3.088-1.943-6.533-2.991-8.569-5.58-2.112-2.528-3.01-5.937-4.206-9.273a27.928,27.928,0,0,0-5.432-9.418c-4.759-5.512-10.809-9.406-15.575-14.31a23.89,23.89,0,0,1-7.048-13.028,22.551,22.551,0,0,0-1.827-5.294,50.06,50.06,0,0,0-6.306-8.841,27.224,27.224,0,0,1-5.166-8.469c-.492-1.538-.787-3.249-1.258-5.044a17.17,17.17,0,0,0-2.3-5.277c-2.1-3.189-4.732-5.567-6.427-8.329a23.558,23.558,0,0,1-3.31-9.193,18.315,18.315,0,0,1,1.028-9.466l.085-.2.024-.164a14.643,14.643,0,0,1,5.23-9.073,17.153,17.153,0,0,1,10.044-3.614,23.668,23.668,0,0,1,10.816,2.246,27.383,27.383,0,0,1,9.037,6.6,42.455,42.455,0,0,1,3.52,4.558l3.44,4.85c2.291,3.233,4.594,6.454,6.989,9.653A236.261,236.261,0,0,0,142.565,214.8l-.055-.065,9.146,11.663L160.871,238c6.157,7.728,12.293,15.474,18.52,23.151-5.784-8.016-11.663-15.958-17.516-23.919l-8.805-11.924L144.2,213.44a234.724,234.724,0,0,1-14.785-18.573c-2.3-3.191-4.481-6.506-6.772-9.741l-3.4-4.877a45.669,45.669,0,0,0-3.711-4.869,30.461,30.461,0,0,0-9.969-7.4,26.806,26.806,0,0,0-12.231-2.619,20.386,20.386,0,0,0-11.97,4.244,17.965,17.965,0,0,0-6.487,11.014l.111-.364A20.874,20.874,0,0,0,73.69,191.52a26.805,26.805,0,0,0,3.87,10.5c2.055,3.223,4.749,5.62,6.519,8.327a13.817,13.817,0,0,1,1.929,4.339c.44,1.6.753,3.368,1.342,5.184a30.093,30.093,0,0,0,5.784,9.435,47.786,47.786,0,0,1,6.016,8.245,19.63,19.63,0,0,1,1.632,4.65,28.394,28.394,0,0,0,1.6,5.249,27.286,27.286,0,0,0,6.4,8.989c5.186,5.061,11.244,8.769,15.824,13.866a25.72,25.72,0,0,1,5.246,8.638c1.253,3.2,2.236,6.811,4.744,9.713a14.119,14.119,0,0,0,4.486,3.274c1.613.807,3.231,1.454,4.688,2.316a14.142,14.142,0,0,1,2.04,1.487c.686.567,1.347,1.161,2.062,1.693a42.988,42.988,0,0,0,4.384,3.047,24.067,24.067,0,0,0,10.005,3.58,15.1,15.1,0,0,0,5.3-.485,16.262,16.262,0,0,0,4.722-2.359" transform="translate(168.103 116.912)" fill="#ffc17d"/>
    <path id="Caminho_321" data-name="Caminho 321" d="M248.456,170.079a15.491,15.491,0,0,1,10.51,6.622c.2.3.374.632.558.951,4.239,4.49,5.678,12.308,3.267,19.107-1.156,3.262-3.1,6.328-3.488,9.727-.3,2.595.355,5.092.251,7.682-.266,6.6-5.312,12.625-5.645,19.233-.111,2.206.318,4.331.278,6.529-.217,11.934-13.332,20.6-15.125,32.567-.654,4.377.229,9.1-1.937,12.967-1.816,3.247-5.287,4.9-7.262,8.033-5.714,9.351-13.221,15.137-22.1,12.636,0,0-8.059-1.661-13.424-4.549-9.1-4.9-8.728-16.569-4.706-27.308L208.588,224.4a202.078,202.078,0,0,0,9.589-23.668l4.425-13.308c3.762-11.323,15.34-19.09,25.855-17.344" transform="translate(-110.193 120.082)" fill="#ffe97b"/>
    <path id="Caminho_322" data-name="Caminho 322" d="M14.51,271.9H458.346a14.51,14.51,0,0,0,0-29.02H14.51a14.51,14.51,0,1,0,0,29.02" transform="translate(0 171.729)" fill="#efbdb4"/>
    <path id="Caminho_323" data-name="Caminho 323" d="M185.309,276.151c4.633-11.2,9.1-22.46,13.588-33.711l13.192-33.854,6.483-16.966a34.357,34.357,0,0,1,3.771-7.849,27.8,27.8,0,0,1,5.778-6.285c4.433-3.554,10.119-5.664,15.623-5.13a14.767,14.767,0,0,1,12.566,9.163l.058.147.125.176a19.208,19.208,0,0,1,3.221,10.831,23.688,23.688,0,0,1-2.757,11.3c-.912,1.818-1.973,3.665-2.783,5.734a17.47,17.47,0,0,0-1.226,6.582,36.665,36.665,0,0,1-.251,6.036,23.775,23.775,0,0,1-1.791,5.647c-1.611,3.721-3.793,7.383-5,11.57a21.532,21.532,0,0,0-.77,6.422,26.8,26.8,0,0,1-.384,6.069,30.3,30.3,0,0,1-5.1,11.057c-2.34,3.416-4.935,6.7-7.255,10.155,2.545-3.3,5.362-6.362,7.875-9.713a31.375,31.375,0,0,0,5.84-11.195,28.179,28.179,0,0,0,.729-6.34,19.808,19.808,0,0,1,.917-5.9c1.234-3.808,3.491-7.3,5.309-11.145a26.086,26.086,0,0,0,2.125-6.176,38.352,38.352,0,0,0,.452-6.41,14.569,14.569,0,0,1,1.183-5.591c.753-1.8,1.779-3.563,2.769-5.446a26.812,26.812,0,0,0,3.283-12.665,21.844,21.844,0,0,0-3.711-12.757l.183.324a18.02,18.02,0,0,0-6.033-7.788,18.583,18.583,0,0,0-9.228-3.464c-6.637-.685-13.1,1.912-18.05,5.894a31.121,31.121,0,0,0-6.432,7.067,21.154,21.154,0,0,0-1.244,2.047,19.109,19.109,0,0,0-1.093,2.151,17.691,17.691,0,0,0-.9,2.17l-.778,2.137-6.224,17.079L197.14,241.769c-3.989,11.446-7.991,22.885-11.832,34.382" transform="translate(-106.354 119.402)" fill="#ffc17d"/>
  </g>
</svg>