<svg id="Grupo_66" data-name="Grupo 66" xmlns="http://www.w3.org/2000/svg" xmlns:xlink="http://www.w3.org/1999/xlink" width="487.136" height="453.682" viewBox="0 0 487.136 453.682">
  <defs>
    <clipPath id="clip-path">
      <rect id="Ret창ngulo_192" data-name="Ret창ngulo 192" width="487.136" height="453.682" fill="none"/>
    </clipPath>
  </defs>
  <g id="Grupo_65" data-name="Grupo 65" clip-path="url(#clip-path)">
    <path id="Caminho_228" data-name="Caminho 228" d="M39.547,359.6H234.113c-.45-32.587,19.529-65.684,26.78-95.552,8.426-34.706,16.747-69.632,17.836-104.356.417-13.279-14.834-25.63-20.722-35.682-5.621-9.591-10.582-10.27-21.388-18.784C218.173,90.688,170.27,89.284,137.549,109L111.97,125.983c-14.5,9.771-25.86,19.491-34.047,32.031C63.955,179.411,67.291,196,68.142,216.14a379.505,379.505,0,0,1-5.186,78.6c-4.528,26.576-13.765,46.236-23.409,64.852" transform="translate(30.001 71.501)" fill="#001443"/>
    <path id="Caminho_229" data-name="Caminho 229" d="M314.291,282.455q-.607-1.068-1.277-2.126L203.662,127.57c-4.794-6.454-4.783,5.262-20.37-6.44-2.821,4.794-6.312,9.178-9.611,13.823-5.985,8.424-11.693,17.092-17.345,25.743a281.553,281.553,0,0,0-21.847,39.388L257.581,324.3c28.894,29.16,76.948-6.132,56.71-41.846" transform="translate(102.025 91.891)" fill="#001443"/>
    <path id="Caminho_230" data-name="Caminho 230" d="M39.588,289.582c-.248,11.192,5.225,22.234,1.08,33.032a37.994,37.994,0,0,1-6.007,9.658H70.137a601.228,601.228,0,0,0,20.1-91.381c2.7-19.48,4.389-39.326.506-57.953-1.446-6.936-3.67-13.775-3.3-21.026.278-5.439,2.017-10.882,2.193-16.316.6-18.355-8.429-20.222-13.536-5.61-6.755,19.318-19.39,44.734-17.718,64.5.855,10.1,3.139,20.14,1.4,30.387-3.227,18.981-19.777,35.742-20.2,54.71" transform="translate(26.294 98.824)" fill="#001443"/>
    <path id="Caminho_231" data-name="Caminho 231" d="M208.47,271.015q-.607-1.068-1.277-2.126l-95.472-128.5a71.72,71.72,0,0,0-6.962-7.655L52.594,212.789,151.76,312.863c28.894,29.158,76.948-6.134,56.71-41.848" transform="translate(39.898 100.692)" fill="#001443"/>
    <path id="Caminho_232" data-name="Caminho 232" d="M140.756,152.358c1.412-14.76,3.178-30.034,4.537-43.642,3.781-1.257,7.508-.389,11.171.455a15.383,15.383,0,0,1,11.906,14.871c.171,16.425.934,32.234,2.1,47.259Z" transform="translate(106.779 81.994)" fill="#f48f7d"/>
    <path id="Caminho_233" data-name="Caminho 233" d="M171.556,125.336a29.09,29.09,0,0,1,24.286,31.18l-13.673,151.2c-3.472,38.4-61.483,35.568-60.125-2.96q.048-1.33.167-2.682l15.713-151.044a29.087,29.087,0,0,1,33.632-25.7" transform="translate(92.566 94.788)" fill="#001443"/>
    <path id="Caminho_234" data-name="Caminho 234" d="M52.948,220.813l49.941,47.764,49.748,47.963-.07-.063a36.316,36.316,0,0,0,11.347,6.4,32.02,32.02,0,0,0,6.336,1.444,33.549,33.549,0,0,1,6.873,1.3,38.769,38.769,0,0,1,6.482,2.687c1.027.529,2.054,1.134,3.02,1.7a30.274,30.274,0,0,0,15.421,4.226c8.607.151,17.407-3.273,22.848-9.91a27.354,27.354,0,0,0,5.578-11.417,44.472,44.472,0,0,0,.911-6.482l.6-6.748,9.611-107.965,2.49-26.984.623-6.746a29.547,29.547,0,0,0,.026-6.428,27.491,27.491,0,0,0-38.107-22.2,27.765,27.765,0,0,0-10.221,7.562,27.2,27.2,0,0,0-5.74,11.345,26.623,26.623,0,0,0-.565,3.158l-.364,3.348-.714,6.737-2.933,26.94-5.9,53.875-.276,2.518-1.6-1.945-37.325-45.314L103.8,152.155l38.143,44.628,38,44.75-1.878.573,5.315-53.937L186.05,161.2l.689-6.739.357-3.389a29.6,29.6,0,0,1,.614-3.507,30.234,30.234,0,0,1,6.336-12.632,30.7,30.7,0,0,1,53.989,16.25,32.991,32.991,0,0,1,.005,7.094l-.6,6.748-2.392,26.993L235.14,299.966l-.623,6.746a48.291,48.291,0,0,1-1.006,6.915,30.5,30.5,0,0,1-6.261,12.676,29.6,29.6,0,0,1-11.429,8.32,34.618,34.618,0,0,1-27.528-.524c-1.069-.512-2.114-1.062-3.127-1.678-.973-.587-1.887-1.14-2.86-1.657a35.847,35.847,0,0,0-5.99-2.56,30.829,30.829,0,0,0-6.4-1.275,34.732,34.732,0,0,1-6.834-1.635,38.788,38.788,0,0,1-12.057-6.964c-.072-.065-49.171-48.691-49.171-48.691Z" transform="translate(40.167 94.053)" fill="#4c537c"/>
    <path id="Caminho_235" data-name="Caminho 235" d="M224.024,151.243c-2.831-14.554-6.065-29.587-8.735-43-3.885-.886-7.509.339-11.074,1.532A15.385,15.385,0,0,0,193.8,125.729c1.417,16.366,2.186,32.174,2.483,47.242Z" transform="translate(146.976 81.886)" fill="#f48f7d"/>
    <path id="Caminho_236" data-name="Caminho 236" d="M207.772,127.84a29.432,29.432,0,0,0-18.589,35.09L228.55,309.1c10,37.117,66.673,23.747,58.736-13.886-.183-.867-41.975-148.244-41.975-148.244a28.772,28.772,0,0,0-37.539-19.125" transform="translate(142.787 95.667)" fill="#001443"/>
    <path id="Caminho_237" data-name="Caminho 237" d="M237.211,133.785a29.645,29.645,0,0,0-12.557-5.861,28.023,28.023,0,0,0-13.633.624,29.086,29.086,0,0,0-11.712,6.707,28.536,28.536,0,0,0-7.3,11.2,27.688,27.688,0,0,0-1.354,13.191,28.773,28.773,0,0,0,.638,3.269l.93,3.387,1.894,6.792,7.43,27.211c4.861,18.165,9.678,36.342,14.3,54.57q7,27.326,13.344,54.83-8.325-26.97-16-54.118c-5.16-18.086-10.124-36.224-15.043-54.375l-7.242-27.262-1.774-6.825-.879-3.428a32.06,32.06,0,0,1-.649-3.658l-.193-1.847-.026-1.854a29.884,29.884,0,0,1,.216-3.7,31.033,31.033,0,0,1,1.843-7.14,30.417,30.417,0,0,1,8.318-11.948,30.817,30.817,0,0,1,12.813-6.665,29.12,29.12,0,0,1,26.632,6.892" transform="translate(142.145 95.64)" fill="#4c537c"/>
    <path id="Caminho_238" data-name="Caminho 238" d="M472.188,270.873H14.948a14.948,14.948,0,1,1,0-29.9H472.188a14.948,14.948,0,1,1,0,29.9" transform="translate(0 182.808)" fill="#efbdb4"/>
    <path id="Caminho_239" data-name="Caminho 239" d="M240.179,45.749c.464-9.5-5.9-17.76-11.871-24.907-4.224-5.056-8.95-10.42-15.142-11.556-3.837-.7-7.868.329-11.582-.95-2.7-.93-4.942-2.986-7.383-4.565A23.229,23.229,0,0,0,176.007.679c-4.5,1.147-8.654,3.683-13.26,4.189-3.77.415-7.559-.559-11.324-1.169a59.125,59.125,0,0,0-14.843-.517c-3.322.3-6.873,1.032-9.122,3.644-4.546,5.276-1.15,14.56-4.643,20.7-4.3,7.557-16.8,6.769-19.484,15.17-2.758,8.637,8.125,17.166,6.143,26.059-.338,1.518-1.039,2.9-1.519,4.372A15.848,15.848,0,0,0,112.2,89.281c3.5,3.12,8.87,5.156,9.344,9.984.185,1.891-.51,3.832-.019,5.663a6.057,6.057,0,0,0,4.56,3.955c6.484,1.637,13.39-4.966,12.625-12.069-.287-2.654-1.44-5.179-1.495-7.847s1.694-5.71,4.159-5.38a7.626,7.626,0,0,0,1.852.3c1.694-.2,2.038-2.657,1.889-4.492-.39-4.812-1.1-9.8.317-14.347,2.2-7.049,9.127-11.267,16-12.254s13.84.614,20.722,1.78,14.123,1.866,20.572-.8c5.373-2.219,9.843-6.649,15.432-8.172a16.687,16.687,0,0,1,14.489,3.042,5.785,5.785,0,0,1,2.075,2.561,7.28,7.28,0,0,1-.026,3.626c-.9,5.026-2.9,11.063-2.6,16.144,3.781-6.16,7.729-17.873,8.088-25.231" transform="translate(78.047 0)" fill="#001443"/>
    <path id="Caminho_240" data-name="Caminho 240" d="M178.255,80.968c1.759-4.875-.093-10.054-4.115-11.5L144.883,58.9c-4.024-1.451-8.756,1.351-10.517,6.225L110.6,130.95a23.33,23.33,0,0,0,43.888,15.843Z" transform="translate(82.85 44.391)" fill="#f48f7d"/>
    <path id="Caminho_241" data-name="Caminho 241" d="M113.522,42.114c2.657-7.5,13.072-9.8,17.27-16.4,1.333-2.1,1.8-4.534,2.988-6.676,4.272-7.719,9.729-9.729,17.725-9.834,7.453-.1,14.238-.183,21.568-1.934,12.541-3,21.559-4.618,32.51,3.294,5.693,4.113,10.953,9.117,16.679,13.195a22.359,22.359,0,0,1,6.21,6.8c4.215,7.049,6.185,11.392,3.593,20.236-.774,2.64-2.339,5-2.993,7.724-1.041,4.342-.116,7.6-.014,11.948.153,6.54-1.952,10.916-4.625,16.624-4.321,9.227-10.131,15.328-16.988,22.756-8,8.666-15.769,17.567-26.984,22.185-15.65,6.445-23.224-3.009-33.378-12.727a81.5,81.5,0,0,0-17.37-13.146c-2.047-3.625-4.015-7.179-5.981-10.4-.237-.086-.457-.09-.695-.183-5.664-2.195-9.22-6.7-11.684-12.059-4.133-8.992,1.467-16.09.489-23.912.73-5.8-.174-12.243,1.683-17.486" transform="translate(83.302 3.643)" fill="#001443"/>
    <path id="Caminho_242" data-name="Caminho 242" d="M192.011,28.79a21.148,21.148,0,0,1,19.8,8.26c1.586,2.022,2.124,4.812.923,10.7L204.55,88.224A71.848,71.848,0,0,1,191.4,117.746c-9.752,12.731-21.1,18.175-36.489,15.036-21.418-4.367-35.418-25.162-30.53-49.134l5.626-27.769A26.458,26.458,0,0,1,151.9,34.987Z" transform="translate(93.618 21.663)" fill="#f48f7d"/>
    <path id="Caminho_243" data-name="Caminho 243" d="M150,54.3c-.485,2.439-2.163,4.161-3.749,3.846s-2.478-2.548-1.992-4.987,2.163-4.161,3.749-3.846S150.485,51.865,150,54.3" transform="translate(109.336 37.384)" fill="#001443"/>
    <path id="Caminho_244" data-name="Caminho 244" d="M171.281,58.536c-.485,2.439-2.163,4.161-3.749,3.846s-2.478-2.548-1.993-4.987,2.163-4.161,3.749-3.846,2.478,2.548,1.993,4.987" transform="translate(125.48 40.595)" fill="#001443"/>
    <path id="Caminho_245" data-name="Caminho 245" d="M131.215,50.818c-6.83-1.395-13.728,4.149-15.405,12.379s2.5,16.028,9.329,17.421,13.728-4.149,15.405-12.377-2.5-16.03-9.329-17.423" transform="translate(87.573 38.388)" fill="#f48f7d"/>
    <path id="Caminho_246" data-name="Caminho 246" d="M159.061,54.716a71.907,71.907,0,0,0,.863,13.986l.58,3.443.171.856a1.005,1.005,0,0,1-.4,1.122,6.383,6.383,0,0,1-1.414.32l-1.722.352c-1.145.269-2.29.529-3.424.9,1.182.167,2.355.225,3.528.288l1.757.046a6.026,6.026,0,0,0,2.028-.165,2.869,2.869,0,0,0,1.738-1.889,3.212,3.212,0,0,0,.1-1.3l-.086-.869-.454-3.463a71.8,71.8,0,0,0-3.262-13.627" transform="translate(116.609 41.508)" fill="#e56e5e"/>
    <path id="Caminho_247" data-name="Caminho 247" d="M168.6,102.143a23.692,23.692,0,0,1-7.573,2.082,23.072,23.072,0,0,1-7.745-1.936,54.685,54.685,0,0,1-13.144-8.155,65.849,65.849,0,0,1-10.724-11.067l-2.246-3.146c-.672-1.1-1.395-2.17-2.045-3.285-.433-1.24-.888-2.453-1.282-3.683q-.5-1.889-.927-3.76,1.134,1.577,2.193,3.136l2.293,2.99,1.956,3.139,2.151,3.016a63.246,63.246,0,0,0,10.3,10.626A52.1,52.1,0,0,0,154.3,99.861a19.486,19.486,0,0,0,6.86,1.709,34.963,34.963,0,0,0,7.446.573" transform="translate(93.247 52.491)" fill="#e56e5e"/>
    <path id="Caminho_248" data-name="Caminho 248" d="M161.181,47.119a1.194,1.194,0,0,0,.763-.4,1.211,1.211,0,0,0-.1-1.711c-8.369-7.46-20.152-2.571-20.648-2.355a1.213,1.213,0,0,0-.644,1.59,1.232,1.232,0,0,0,1.592.644c.109-.046,10.877-4.492,18.084,1.931a1.2,1.2,0,0,0,.951.3" transform="translate(106.554 31.013)" fill="#001443"/>
    <path id="Caminho_249" data-name="Caminho 249" d="M180,49.2a1.214,1.214,0,0,0,.283-2.342c-7.219-2.706-14.834.137-15.156.259a1.214,1.214,0,0,0,.863,2.269c.069-.026,7.1-2.638,13.439-.253a1.231,1.231,0,0,0,.57.069" transform="translate(124.678 34.664)" fill="#001443"/>
    <path id="Caminho_250" data-name="Caminho 250" d="M157.019,75.312a13.551,13.551,0,0,1-8.408-4.544l-3.394-.528c-.341,4.481,4.034,8.812,10.221,9.815,6.264,1.015,11.869-1.778,12.864-6.227l-1.7-.264a13.556,13.556,0,0,1-9.584,1.748" transform="translate(110.149 53.285)" fill="#e56e5e"/>
    <path id="Caminho_251" data-name="Caminho 251" d="M155.547,75.084a13.556,13.556,0,0,0,9.584-1.748l-17.992-2.8a13.551,13.551,0,0,0,8.408,4.544" transform="translate(111.622 53.513)" fill="#fff"/>
    <path id="Caminho_252" data-name="Caminho 252" d="M227.078,118.761c2.719,14.463-10.668,26.008-29.9,25.787s-37.024-12.124-39.743-26.585,10.668-26.008,29.9-25.788,37.024,12.124,39.743,26.587" transform="translate(119.168 69.922)" fill="#ffe97b"/>
    <path id="Caminho_253" data-name="Caminho 253" d="M226.584,112.761c2.717,14.463-10.669,26.008-29.9,25.787s-37.022-12.124-39.743-26.585,10.668-26.008,29.9-25.788,37.024,12.124,39.745,26.587" transform="translate(118.792 65.371)" fill="#a54220"/>
    <path id="Caminho_254" data-name="Caminho 254" d="M226.648,113.427c2.719,14.463-10.668,26.008-29.9,25.787s-37.024-12.124-39.743-26.585,10.668-26.008,29.9-25.788,37.024,12.124,39.743,26.587" transform="translate(118.842 65.876)" fill="#fc5810"/>
    <path id="Caminho_255" data-name="Caminho 255" d="M226.564,112.386c2.719,14.463-10.668,26.008-29.9,25.787s-37.024-12.124-39.743-26.585,10.668-26.008,29.9-25.788,37.024,12.124,39.743,26.587" transform="translate(118.778 65.086)" fill="#a54220"/>
    <path id="Caminho_256" data-name="Caminho 256" d="M225.849,109.49c2.719,14.463-10.668,26.008-29.9,25.787s-37.024-12.124-39.743-26.585,10.668-26.008,29.9-25.788,37.024,12.124,39.743,26.587" transform="translate(118.236 62.889)" fill="#fc5810"/>
    <path id="Caminho_257" data-name="Caminho 257" d="M225.742,108.183c2.719,14.463-10.668,26.008-29.9,25.787S158.82,121.846,156.1,107.385,166.769,81.377,186,81.6s37.024,12.124,39.743,26.587" transform="translate(118.154 61.898)" fill="#ffe97b"/>
    <path id="Caminho_258" data-name="Caminho 258" d="M172.865,85.2c.141.881-.974,1.593-2.492,1.593s-2.863-.712-3-1.593.974-1.593,2.492-1.593,2.863.714,3,1.593" transform="translate(126.959 63.423)" fill="#ffc17d"/>
    <path id="Caminho_259" data-name="Caminho 259" d="M184.058,88.307c.178,1.11-1.228,2.008-3.139,2.008s-3.607-.9-3.786-2.008,1.229-2.008,3.141-2.008,3.607.9,3.785,2.008" transform="translate(134.364 65.468)" fill="#ffc17d"/>
    <path id="Caminho_260" data-name="Caminho 260" d="M181.717,120.608c.1.645-.714,1.169-1.827,1.169s-2.1-.524-2.2-1.169.716-1.169,1.827-1.169,2.1.524,2.2,1.169" transform="translate(134.788 90.608)" fill="#ffc17d"/>
    <path id="Caminho_261" data-name="Caminho 261" d="M188.85,118.366c.113.707-.781,1.279-2,1.279s-2.3-.572-2.409-1.279.781-1.279,2-1.279,2.3.572,2.409,1.279" transform="translate(139.912 88.824)" fill="#ffc17d"/>
    <path id="Caminho_262" data-name="Caminho 262" d="M172.206,116.416c.074.457-.506.828-1.3.828s-1.488-.371-1.562-.828.507-.828,1.3-.828,1.488.371,1.562.828" transform="translate(128.465 87.687)" fill="#ffc17d"/>
    <path id="Caminho_263" data-name="Caminho 263" d="M201.118,113.691c.426-4.108.3-7.882-.266-8.714a3.564,3.564,0,0,0-.368-3.25,3.485,3.485,0,0,0-3.366-1.483,3.645,3.645,0,0,0,1.115-5.063,3.512,3.512,0,0,0-4.9-.9l-17.669,12.208a19.318,19.318,0,0,0-2.327-1.432l16.228-11.213a3.592,3.592,0,0,0,.943-4.943,3.511,3.511,0,0,0-4.9-.9L161.861,104.4a3.575,3.575,0,0,0-.911.93,19.619,19.619,0,0,0-2.179,1.4l.494-1.479a4.547,4.547,0,1,0-8.637-2.844l-7.02,21.033a4.562,4.562,0,0,0,2.865,5.781,4.513,4.513,0,0,0,.521.114,25.979,25.979,0,0,0,.519,9.472c2.161,10.483,6.994,8.067,20.548,3.929a40.2,40.2,0,0,0,10.661-4.75c.128-.06,14.157-10,14.157-10a20.354,20.354,0,0,0,8.241-14.292" transform="translate(108.763 66.279)" fill="#f48f7d"/>
    <path id="Caminho_264" data-name="Caminho 264" d="M176.623,109.862c.5-4.1,1.461-7.75,2.2-8.436a3.559,3.559,0,0,1,1.082-3.088,3.481,3.481,0,0,1,3.61-.7,3.646,3.646,0,0,1,.037-5.184,3.513,3.513,0,0,1,4.982.209L203.043,108.5a19.2,19.2,0,0,1,2.587-.881L192.3,93.08a3.593,3.593,0,0,1,.178-5.031,3.512,3.512,0,0,1,4.982.211l19.5,21.274a3.54,3.54,0,0,1,.682,1.108,19.534,19.534,0,0,1,1.813,1.848l-.153-1.553a4.547,4.547,0,1,1,9.053-.851l2.168,22.067a4.562,4.562,0,0,1-4.076,5,4.166,4.166,0,0,1-.535,0,26.01,26.01,0,0,1-2.61,9.12c-4.439,9.739-8.614,6.308-20.908-.737a40.283,40.283,0,0,1-9.338-7c-.111-.086-11.579-12.9-11.579-12.9a20.355,20.355,0,0,1-4.857-15.766" transform="translate(133.877 66.085)" fill="#f48f7d"/>
    <path id="Caminho_265" data-name="Caminho 265" d="M111.552,217.667H101.545L47.7,249.892v8.772H64.3l47.249-28.131Z" transform="translate(36.184 165.125)" fill="#fc5810"/>
    <path id="Caminho_266" data-name="Caminho 266" d="M104.389,224.983,57.14,253.114h47.249Z" transform="translate(43.347 170.675)" fill="#ffc17d"/>
    <path id="Caminho_267" data-name="Caminho 267" d="M47.7,217.667v32.225l53.847-32.225Z" transform="translate(36.185 165.125)" fill="#ffc17d"/>
    <rect id="Ret창ngulo_191" data-name="Ret창ngulo 191" width="63.853" height="40.997" transform="translate(137.196 382.792)" fill="#ffe97b"/>
    <path id="Caminho_268" data-name="Caminho 268" d="M223.832,272.264A1.756,1.756,0,0,1,222.145,271l-22.494-76.241-27.987-41.688a1.759,1.759,0,0,1,2.919-1.963l28.138,41.913a1.712,1.712,0,0,1,.227.484l22.57,76.5a1.759,1.759,0,0,1-1.687,2.256" transform="translate(130 114.044)" fill="#ffe97b"/>
    <path id="Caminho_269" data-name="Caminho 269" d="M228.594,290.416H193.079L180.99,175.667H241Z" transform="translate(137.301 133.263)" fill="#fc5810"/>
    <path id="Caminho_270" data-name="Caminho 270" d="M241.735,178.089H181.723a1.649,1.649,0,1,1,0-3.3h60.013a1.649,1.649,0,0,1,0,3.3" transform="translate(136.606 132.599)" fill="#fbe2dc"/>
  </g>
</svg>