<?xml version="1.0" encoding="utf-8"?>
<!-- Generator: Adobe Illustrator 26.0.3, SVG Export Plug-In . SVG Version: 6.00 Build 0)  -->
<svg version="1.1" id="Layer_1" xmlns="http://www.w3.org/2000/svg" xmlns:xlink="http://www.w3.org/1999/xlink" x="0px" y="0px"
	 viewBox="0 0 300 300" style="enable-background:new 0 0 300 300;" xml:space="preserve">
<style type="text/css">
	.st0{fill:#F7FAFF;}
	.st1{fill:#EC8F43;}
	.st2{fill:#BCBCB5;}
	.st3{fill:#91E79C;}
	.st4{fill:#DAE5F2;}
	.st5{fill:#BCD3E6;}
	.st6{fill:#FFB176;}
	.st7{fill:#FFC460;}
	.st8{fill:#FF9881;}
	.st9{fill:#273437;}
	.st10{fill:#0A221E;}
	.st11{fill:#FF6651;}
	.st12{fill:#3D7A61;}
	.st13{fill:#FFFFFF;}
	.st14{fill:#F9F2F1;}
</style>
<g>
	<g id="Phone_1_">
		<path class="st0" d="M189.64,18.35l-21.44,0.76c-1.44,0.05-2.66,1.08-2.94,2.5l-0.53,2.65c-0.28,1.41-1.5,2.45-2.94,2.5
			l-16.36,0.58c-1.44,0.05-2.73-0.89-3.11-2.28l-0.72-2.61c-0.38-1.39-1.67-2.33-3.11-2.28l-21.44,0.76
			c-4.26,0.15-7.6,3.73-7.45,7.99l5.21,147.61c0.15,4.26,3.73,7.6,7.99,7.45l72.58-2.56c4.26-0.15,7.6-3.73,7.45-7.99L197.63,25.8
			C197.48,21.54,193.9,18.2,189.64,18.35z"/>
		<path class="st1" d="M168.03,14.37l21.44-0.76c4.26-0.15,7.86,3.56,8.02,8.28l1.42,40.17l-88,3.11l-1.44-40.82
			c0.15-4.43,3.35-8.03,7.42-8.17l21.44-0.76L168.03,14.37z"/>
		<g>
			<path class="st2" d="M128.98,137.23l0.01,0.19c0.19,5.32,4.65,9.48,9.98,9.3l36.55-1.29c5.32-0.19,9.48-4.65,9.3-9.98l-0.01-0.19
				c-0.19-5.32-4.65-9.48-9.98-9.3l-36.55,1.29C132.96,127.44,128.79,131.91,128.98,137.23z"/>
			<path class="st2" d="M185.68,110.17l-59.26,2.09c-0.74,0.03-1.37-0.55-1.39-1.3c-0.03-0.74,0.55-1.37,1.3-1.39l59.26-2.09
				c0.74-0.03,1.37,0.55,1.39,1.3C187,109.52,186.42,110.14,185.68,110.17z"/>
			<path class="st2" d="M176.39,116.33l-42.3,1.49c-0.74,0.03-1.37-0.55-1.39-1.3c-0.03-0.74,0.55-1.37,1.3-1.39l42.3-1.49
				c0.74-0.03,1.37,0.55,1.39,1.3C177.72,115.68,177.14,116.31,176.39,116.33z"/>
			<path class="st3" d="M150.16,98.25c-0.03-0.91-0.79-1.62-1.7-1.59c-0.91,0.03-1.62,0.79-1.59,1.7c0.03,0.91,0.79,1.62,1.7,1.59
				C149.48,99.92,150.19,99.16,150.16,98.25z"/>
			<path class="st1" d="M157.32,98c-0.03-0.91-0.79-1.62-1.7-1.59c-0.91,0.03-1.62,0.79-1.59,1.7c0.03,0.91,0.79,1.62,1.7,1.59
				C156.64,99.67,157.35,98.91,157.32,98z"/>
			<path class="st3" d="M164.49,97.75c-0.03-0.91-0.79-1.62-1.7-1.59c-0.91,0.03-1.62,0.79-1.59,1.7c0.03,0.91,0.79,1.62,1.7,1.59
				C163.81,99.42,164.52,98.65,164.49,97.75z"/>
		</g>
		<path class="st1" d="M123.19,20.7l-6.13,0.22c-4.07,0.14-7.28,3.4-7.45,7.4l1.3,36.84l29.92-1.06L123.19,20.7z"/>
		<g>
			<path class="st4" d="M189.99,81.12l-68.41,2.41c-2.09,0.07-3.84-1.56-3.92-3.65l-1.36-38.61c-0.07-2.09,1.56-3.84,3.65-3.92
				l68.41-2.41c2.09-0.07,3.84,1.56,3.92,3.65l1.36,38.61C193.72,79.29,192.08,81.04,189.99,81.12z"/>
			<path class="st5" d="M134.12,36.86l-14.17,0.5c-2.09,0.07-3.72,1.83-3.65,3.92l1.36,38.61c0.07,2.09,1.83,3.72,3.92,3.65
				l31.06-1.1L134.12,36.86z"/>
			<path class="st3" d="M189.92,79.08l-68.41,2.41c-2.09,0.07-3.84-1.56-3.92-3.65l-1.36-38.61c-0.07-2.09,1.56-3.84,3.65-3.92
				l68.41-2.41c2.09-0.07,3.84,1.56,3.92,3.65l1.36,38.61C193.64,77.25,192.01,79,189.92,79.08z"/>
			
				<ellipse transform="matrix(0.9651 -0.2621 0.2621 0.9651 -6.0039 46.4607)" class="st1" cx="171.19" cy="45.74" rx="6.65" ry="6.65"/>
			
				<ellipse transform="matrix(0.9749 -0.2227 0.2227 0.9749 -5.586 41.3081)" class="st1" cx="180.34" cy="45.42" rx="6.65" ry="6.65"/>
			<path class="st1" d="M134.15,69.32l-10.37,0.37c-0.98,0.03-1.8-0.73-1.84-1.71l0-0.04c-0.03-0.98,0.73-1.8,1.71-1.84l10.37-0.37
				c0.98-0.03,1.8,0.73,1.84,1.71l0,0.04C135.89,68.46,135.12,69.28,134.15,69.32z"/>
			<path class="st1" d="M151.71,68.7l-10.37,0.37c-0.98,0.03-1.8-0.73-1.84-1.71l0-0.04c-0.03-0.98,0.73-1.8,1.71-1.84l10.37-0.37
				c0.98-0.03,1.8,0.73,1.84,1.71l0,0.04C153.45,67.84,152.69,68.66,151.71,68.7z"/>
			<path class="st1" d="M152.85,75.97l-28.81,1.02c-0.98,0.03-1.8-0.73-1.84-1.71l0-0.04c-0.03-0.98,0.73-1.8,1.71-1.84l28.81-1.02
				c0.98-0.03,1.8,0.73,1.84,1.71l0,0.04C154.6,75.11,153.83,75.93,152.85,75.97z"/>
			<path class="st1" d="M169.27,68.08l-10.37,0.37c-0.98,0.03-1.8-0.73-1.84-1.71l0-0.04c-0.03-0.98,0.73-1.8,1.71-1.84l10.37-0.37
				c0.98-0.03,1.8,0.73,1.84,1.71l0,0.04C171.01,67.22,170.25,68.04,169.27,68.08z"/>
			<path class="st1" d="M186.83,67.46l-10.37,0.37c-0.98,0.03-1.8-0.73-1.84-1.71l0-0.04c-0.03-0.98,0.73-1.8,1.71-1.84l10.37-0.37
				c0.98-0.03,1.8,0.73,1.84,1.71l0,0.04C188.58,66.6,187.81,67.42,186.83,67.46z"/>
			
				<ellipse transform="matrix(0.9994 -0.0353 0.0353 0.9994 -1.4979 6.2261)" class="st6" cx="175.77" cy="45.58" rx="2.07" ry="4.81"/>
		</g>
		<path class="st1" d="M114.29,161.66l0.52,14.86c0.15,4.26,3.73,7.6,7.99,7.45l72.58-2.56c4.26-0.15,7.6-3.73,7.45-7.99
			l-0.52-14.86L114.29,161.66z"/>
		<path class="st1" d="M114.29,161.66l0.52,14.86c0.15,4.26,3.73,7.6,7.99,7.45l65.79-2.32l-9.06-22.29L114.29,161.66z"/>
		<path class="st3" d="M171.16,24.06l-35.89,1.27c-0.74,0.03-1.37-0.55-1.39-1.3s0.55-1.37,1.3-1.39l35.89-1.27
			c0.74-0.03,1.37,0.55,1.39,1.3C172.49,23.41,171.91,24.04,171.16,24.06z"/>
		<path class="st7" d="M114.67,172.36l0.15,4.16c0.15,4.26,3.73,7.6,7.99,7.45l72.58-2.56c4.26-0.15,7.6-3.73,7.45-7.99l-0.15-4.16
			L114.67,172.36z"/>
		<path class="st7" d="M188.6,181.65l-4.77-11.72l-69.17,2.44l0.15,4.16c0.15,4.26,3.73,7.6,7.99,7.45L188.6,181.65z"/>
		<polygon class="st1" points="128.63,177.81 128.71,180.07 126.72,179.01 124.73,177.95 126.64,176.76 128.55,175.56 		"/>
		<polygon class="st1" points="189.2,175.68 189.28,177.93 191.19,176.73 193.1,175.54 191.11,174.48 189.12,173.43 		"/>
	</g>
	<g>
		<path class="st2" d="M86.9,149.84c-0.71-0.54-1.72-0.79-2.73-0.89c0.72-1.42,0.56-3.27-0.57-4.55c-1.57-1.78-3.99-1.9-5.92-0.88
			c-0.36-2.22-0.91-4.44-2.29-6.25c-1.64-2.14-4.31-3.24-6.98-2.97c-2.69,0.27-5.11,1.89-6.4,4.26c-1.01,1.86-1.23,4-0.74,6
			c-2.1-0.54-4.43-0.14-6.17,1.21c-2.32,1.8-3.26,5-2.41,7.79c0.14,0.47,0.52,0.66,0.9,0.66c0.12,0.06,0.27,0.1,0.44,0.1
			c7.67-0.08,15.35-0.17,23.02-0.25l5.8-0.06c1.42-0.02,3.15,0.15,4.21-1C87.91,152.08,87.93,150.63,86.9,149.84z"/>
		<path class="st2" d="M201.32,98.77l0.07,3.46c2.03-3.03,4.99-5.33,8.64-4.91c0.22-0.36,0.56-0.6,1.11-0.54
			c0.41,0.04,0.7,0.22,0.89,0.47c0.1,0.1,0.19,0.23,0.23,0.37c0.58,1.97,1.11,3.96,1.57,5.96c2.47-0.11,4.94-0.24,7.41-0.4
			c0.65-0.04,1.02-0.56,0.91-1.19c-0.5-2.81-3.12-4.79-5.87-4.85c0.25-2.2-0.53-4.53-2.25-5.99c-1.66-1.41-3.82-1.89-5.88-1.48
			c0.07-3.85-3.06-7.2-7.1-7.05l0.39,16.14L201.32,98.77z"/>
		<path class="st2" d="M97.73,106.19c-0.43,1.11-0.39,2.38,0.09,3.47c-2.07,1.2-5.33,3.97-3.13,5.95c1.08,0.98,3.02,0.68,4.35,0.68
			c1.41-0.01,2.83-0.06,4.24-0.14c-1.43-2.78-2.99-5.5-4.54-8.21C98.4,107.35,98.07,106.77,97.73,106.19z"/>
		<path class="st8" d="M113.16,171.42c-0.02-5.08-0.28-10.16-0.81-15.22c-0.02-0.22-0.11-0.43-0.24-0.6
			c0.08-0.14,0.15-0.28,0.22-0.42c0.06-0.13,0.12-0.26,0.17-0.39c-1.18,0.59-2.42,1.07-3.71,1.44c-1.17,0.34-1.66-1.48-0.5-1.81
			c1.65-0.48,3.22-1.15,4.68-2.01c0.02-0.17,0.03-0.34,0.05-0.52c0.14-1.29,0.72-2.57,1.13-3.78c0.04-0.11,0.07-0.22,0.11-0.33
			c-1.01,0.54-2.07,1.01-3.17,1.39c-1.14,0.4-1.63-1.41-0.5-1.81c1.63-0.57,3.17-1.35,4.58-2.31c0.04-0.11,0.07-0.22,0.11-0.33
			l0.1-0.31c0.61-0.43,1.2-0.88,1.78-1.35c0.27-0.22,0.54-0.45,0.81-0.69c0.19-0.16,0.37-0.33,0.56-0.5
			c0.12-0.11,0.25-0.23,0.37-0.34c0.33-0.31,0.65-0.64,0.97-0.97c0.48-0.5,0.96-1.01,1.41-1.55c1.36-1.61,2.55-3.38,3.37-5.28
			c0.3-0.71,0.54-1.45,0.7-2.19c0.03-0.14,0.06-0.28,0.08-0.41c0.1-0.59,0.15-1.19,0.14-1.78c-0.01-0.51-0.06-1.01-0.17-1.51
			c-0.21-0.98-0.61-1.92-1.26-2.77c-1.66-2.2-4.42-3.51-7.18-3.13c-0.22,0.03-0.44,0.07-0.66,0.12c-0.66,0.14-1.3,0.36-1.92,0.63
			c-0.61,0.26-1.21,0.57-1.79,0.92l-2.5,1.89l-0.62-29.62c-1.22-2.34-2.83-4.48-4.87-6.3c-1.99-1.78-4.61-3.43-7.4-3.1
			c-2.59,0.31-4.42,2.41-4.92,4.9c-0.59,2.92,0.58,5.73,1.88,8.28c1.13,2.21,2.35,4.38,3.58,6.53c0.33,0.58,0.67,1.17,1,1.75
			c1.55,2.71,3.11,5.43,4.54,8.21c1.81,3.52,3.42,7.14,4.55,10.96c-0.32,0.26-0.64,0.53-0.95,0.8c-0.73,0.62-1.44,1.28-2.11,1.96
			c-1.35,1.37-2.57,2.86-3.5,4.52c-3.57,6.36-3.26,14.18-2.39,21.19c0.48,3.84,2.2,7.18,3.94,10.58c1.47,2.88,3.14,5.69,5.32,8.09
			c0.89-0.56,1.81-1.08,2.73-1.59C111.62,172.23,112.39,171.82,113.16,171.42z M109.46,126.66c0.02-0.04,0.03-0.08,0.04-0.11
			c0.05-0.03,0.1-0.05,0.15-0.06c1.21-1.43,3.03-2.56,4.74-3.34c0.67-0.31,1.33-0.56,1.92-0.75c0.02-0.01,0.04-0.01,0.06-0.02
			c0.79-0.25,1.47,0.7,1.06,1.38c-0.42,0.69-0.74,1.39-0.98,2.12c-0.44,1.33-0.6,2.73-0.51,4.19c0.06,0.91-0.11,1.63-0.85,2.22
			c-0.1,0.08-0.21,0.15-0.32,0.22c-0.74,0.48-1.65,0.79-2.44,1.17c-0.78,0.37-1.81,1.11-2.73,0.88
			C107.97,132.17,107.91,129.13,109.46,126.66z"/>
		<path class="st8" d="M226.53,223.68c-0.26-1.22-0.51-2.44-0.75-3.67c-3.43,3.14-7.5,5.57-11.96,7.08
			c-1.15,0.39-1.64-1.42-0.5-1.81c4.61-1.57,8.81-4.21,12.24-7.64c0.88-2.89,1.22-5.94,1.37-8.97c0.23-4.79,0.29-9.56,0.79-14.33
			c0.51-4.8,1.22-9.57,1.74-14.37c0.52-4.81,0.86-9.66,0.59-14.5c-0.27-4.86-1.42-9.55-2.3-14.32c-1.54-8.39-0.07-17.57-3.82-25.47
			c-1.07-2.26-2.62-4.22-4.15-6.18c-1.53-1.96-2.96-3.95-4.13-6.15c-0.03-0.05-0.05-0.1-0.07-0.14c-0.31-0.59-0.6-1.19-0.88-1.8
			c-0.07-0.15-0.14-0.31-0.21-0.46c-0.37,0.15-0.84,0.06-1.17-0.36c-1.56-2.03-2.63-4.39-3.14-6.88c-0.04-0.19-0.07-0.38-0.11-0.56
			c-0.02-0.04-0.04-0.09-0.05-0.14c-0.21-0.77-0.3-1.53-0.29-2.29c-0.06-0.65-0.09-1.3-0.06-1.95c0.02-0.48,0.1-1.04,0.34-1.45
			c-3.65-0.42-6.61,1.88-8.64,4.91c-0.36,0.53-0.68,1.09-0.98,1.66c-0.82,1.57-1.42,3.23-1.75,4.75c-0.32,1.47-0.51,2.97-0.58,4.5
			c-0.22,5.08,0.92,10.34,2.95,14.87c0.21,0.47,0.44,0.93,0.69,1.38c0.08,0.15,0.17,0.3,0.25,0.45c0.11-0.1,0.47-0.58,0.71-0.92
			c2.76,3.73,7.01,6.49,11.74,6.56c1.21,0.02,1.21,1.89,0,1.88c-4.93-0.07-9.38-2.67-12.5-6.37c-0.58,5.97-0.88,11.96-0.91,17.96
			c-0.02,3.31,0.05,6.62,0.19,9.92c0.11,2.46,0.26,4.91,0.46,7.36c0.02,0.2,0.03,0.4,0.05,0.61c-0.02,0.02-0.03,0.04-0.05,0.05
			c-2.39,2.51-4.23,5.53-5.38,8.8c-0.46,0.34-0.92,0.68-1.36,1.03c-1.16,0.92-2.26,1.91-3.31,2.95c-0.23,0.23-0.46,0.46-0.69,0.69
			c-0.27,0.28-0.53,0.57-0.8,0.86c-1.42,1.57-2.72,3.25-3.88,5.03c-0.23,0.35-0.46,0.71-0.68,1.07c-0.16-0.05-0.32-0.1-0.49-0.16
			c-0.02-0.01-0.03-0.01-0.05-0.02c-0.24-0.08-0.45-0.05-0.62,0.04c-0.4,0.03-0.8,0.06-1.2,0.09c0.19,0.35,0.39,0.69,0.6,1.02
			c0.41,0.67,0.84,1.32,1.3,1.95c2.84,3.92,6.6,7.09,10.99,9.23c1.09,0.53,0.13,2.15-0.95,1.62c-5.63-2.74-10.35-7.19-13.43-12.64
			c-0.16-0.28-0.31-0.56-0.46-0.85c-0.03-0.06-0.06-0.13-0.08-0.19c-0.86,0.06-1.73,0.13-2.59,0.19c-8.42,0.62-16.85,1.2-25.28,1.74
			c-1.88,0.12-3.76,0.24-5.63,0.36c-2.82,0.17-5.63,0.35-8.45,0.51c-0.83,0.05-1.65,0.1-2.48,0.14c-0.9,0.05-1.8,0.11-2.7,0.16
			c-1.26,0.07-2.52,0.14-3.78,0.21c-0.07,2.5-0.59,4.97-1.54,7.29c-0.45,1.1-2.27,0.62-1.81-0.5c0.88-2.15,1.38-4.39,1.47-6.69
			c-1.42,0.08-2.83,0.15-4.25,0.23c-0.26,0.01-0.52,0.03-0.77,0.04c-2.2,2.99-5.16,5.27-8.63,6.67c-1.12,0.46-1.6-1.36-0.5-1.81
			c2.55-1.04,4.81-2.67,6.62-4.73c-0.05,0-0.09,0-0.14,0.01c0-0.12,0-0.24,0-0.36c-0.01-0.26-0.04-0.52-0.09-0.78
			c-2.25,0.35-4.56,0.29-6.85-0.19c-1.18-0.25-0.68-2.06,0.5-1.81c1.97,0.41,4,0.47,5.98,0.18c1.12-0.43,2.23-0.86,3.34-1.31
			c0.53-0.22,1.07-0.44,1.59-0.67c0.96-0.43,1.9-0.89,2.81-1.4c0.64-0.36,1.26-0.76,1.86-1.18c0.37-0.26,0.73-0.53,1.08-0.82
			c0.26-0.21,0.51-0.44,0.76-0.67c0.07-0.06,0.14-0.13,0.21-0.19c0.12-0.12,0.24-0.24,0.35-0.36c0.24-0.25,0.47-0.5,0.69-0.76
			c0.21-0.25,0.41-0.51,0.6-0.77c1.21-1.67,2.03-3.6,2.18-5.69c0.11-1.51-0.16-3.07-0.79-4.45c-0.3-0.67-0.69-1.29-1.16-1.85
			c-0.08-0.09-0.15-0.18-0.23-0.26c-0.01-0.01-0.02-0.03-0.04-0.04c-0.24-0.26-0.5-0.5-0.78-0.72c-0.24-0.19-0.5-0.24-0.75-0.21
			c-0.1,0.01-0.2,0.05-0.29,0.09c-0.04,0.02-0.07,0.03-0.11,0.05c-0.39-0.04-0.79-0.05-1.18-0.03c-1.92,0.07-3.82,0.7-5.66,1.2
			c-0.96,0.27-1.92,0.54-2.88,0.84c-1.21,0.38-2.41,0.78-3.59,1.24c-0.12,0.04-0.23,0.09-0.35,0.13c-0.4,0.16-0.8,0.32-1.2,0.49
			c-0.11,0.05-0.23,0.1-0.34,0.15c-1.1,0.48-2.18,1-3.22,1.58l-4.03,2.65c-0.92,0.73-1.8,1.52-2.61,2.39
			c-0.11,0.12-0.21,0.23-0.32,0.35c-2.7,3.01-4.64,6.72-5.08,10.77c-0.47,4.27,1.06,8.43,3.53,11.86c2.51,3.48,5.76,6.33,9.06,9.04
			c4.25,3.51,8.52,7,12.78,10.5c8.51,6.99,17.03,13.99,25.54,20.98c4.1,3.37,8.81,7.23,13.91,9.57c4.33-0.28,8.59-1.3,12.58-3.05
			c1.1-0.48,2.05,1.14,0.95,1.62c-3.66,1.6-7.52,2.66-11.46,3.12c2.13,11.38,5.67,22.48,10.56,32.98c1.1,2.35,2.3,4.68,4.02,6.65
			c1.61,1.86,3.67,3.21,5.94,4.14c4.81,1.97,10.31,2.01,15.42,1.53c5.77-0.54,11.43-1.94,16.91-3.8c4.9-1.66,10.29-3.4,14.31-6.78
			c3.84-3.23,5.56-8.12,5.68-13.04c0.14-5.64-1.82-11.03-3.84-16.2C232.66,246.77,229.05,235.39,226.53,223.68z M123.57,170.41
			c1.94-1.45,4.15-2.52,6.47-3.22c0.63-0.19,1.13,0.32,1.19,0.91c0.12,1.19,0.24,2.37,0.36,3.56c0.02,0.17,0.04,0.35,0.05,0.52
			c0,0.02,0,0.04,0.01,0.06c0.02,0.19,0.04,0.37,0.06,0.56c0.1,0.97,0.3,2.03-0.29,2.81c-0.1,0.13-0.22,0.26-0.37,0.37
			c-0.92,0.7-2.37,0.94-3.48,1.14c-1.3,0.23-2.69,0.38-4,0.17c-1.07-0.17-2.16-0.8-2.49-1.9c-0.06-0.22-0.1-0.43-0.1-0.65
			C120.61,172.9,122.11,171.5,123.57,170.41z M138.91,211.57c-0.83,2.32-2.04,4.41-3.62,6.3c-0.78,0.93-2.1-0.41-1.33-1.33
			c1.36-1.63,2.42-3.48,3.14-5.47C137.51,209.94,139.32,210.43,138.91,211.57z"/>
		<path class="st9" d="M112.58,123.61c0.58-0.35,1.18-0.66,1.79-0.92c0.63-0.27,1.27-0.48,1.92-0.63l-0.29-7.05
			c-0.03-0.62-0.05-1.25-0.08-1.87c-0.2-4.74-0.39-9.47-0.59-14.21c-0.04-0.88-0.07-1.76-0.11-2.64
			c-0.22-5.23-0.43-10.46-0.65-15.69C113.96,65.3,113.3,50,112.7,34.7c-0.05-1.21-0.09-2.47-0.07-3.75c-0.08-2.6-0.13-5.21,0-7.8
			c0.01-0.18,0.02-0.35,0.04-0.53c0-0.04,0.01-0.09,0.01-0.13c0.01-0.13,0.03-0.27,0.05-0.4c0.01-0.04,0.01-0.09,0.02-0.13
			c0.02-0.13,0.04-0.26,0.06-0.39c0.01-0.04,0.02-0.08,0.02-0.12c0.03-0.14,0.06-0.27,0.09-0.4c0.01-0.03,0.02-0.06,0.02-0.09
			c0.04-0.14,0.07-0.28,0.12-0.42c0.01-0.02,0.01-0.05,0.02-0.07c0.05-0.14,0.09-0.29,0.15-0.43c0.01-0.02,0.01-0.03,0.02-0.05
			c0.06-0.15,0.12-0.29,0.19-0.44c0-0.01,0.01-0.02,0.01-0.03c0.07-0.15,0.15-0.3,0.23-0.45c0,0,0,0,0,0
			c20.47-1.1,40.98-1.57,61.48-1.37c5.92,0.06,11.83,0.17,17.75,0.33c0.01,0.02,0.02,0.04,0.03,0.06c0.06,0.11,0.11,0.22,0.16,0.33
			c0.01,0.01,0.01,0.03,0.02,0.04c0.12,0.26,0.22,0.53,0.3,0.8c0,0.01,0.01,0.03,0.01,0.04c0.04,0.14,0.08,0.28,0.12,0.42
			c0,0,0,0,0,0c0.04,0.14,0.07,0.28,0.1,0.42c0,0.01,0,0.02,0.01,0.03c0.03,0.14,0.06,0.29,0.08,0.43c0,0.01,0,0.02,0.01,0.03
			c0.05,0.29,0.09,0.58,0.12,0.87c0,0.02,0,0.03,0.01,0.05c0.03,0.29,0.05,0.58,0.07,0.87c0,0.02,0,0.04,0,0.05
			c0.01,0.15,0.01,0.29,0.02,0.44c0,0.01,0,0.01,0,0.02c0.01,0.14,0.01,0.28,0.01,0.42c0,0.02,0,0.03,0,0.05
			c0,0.14,0.01,0.28,0.01,0.42c0,0.02,0,0.04,0,0.05c0,0.14,0,0.27,0,0.41c0,0.01,0,0.01,0,0.02c0,0.16,0,0.31,0,0.47
			c0,0.14,0,0.28,0,0.42c0.05,7.71,0.1,15.41,0.15,23.12c0.08,11.68,0.15,23.37,0.23,35.05c0.01,0.81,0.01,1.63,0.02,2.44
			c0.02,2.85,0.04,5.7,0.06,8.55c0.02,2.61,0.03,5.22,0.05,7.84c0,0.63,0.01,1.25,0.01,1.88c0.07,10.17,0.13,20.34,0.2,30.51
			c0.01,1.27,0.02,2.55,0.02,3.82c0,0,0,0.01,0,0.01c0,0.71,0.01,1.42,0.01,2.14c0,0.22,0,0.44,0,0.66c0,0.75,0.01,1.5,0.01,2.24
			c0.01,1.72,0.02,3.44,0.03,5.16c0.03,5,0.07,9.99,0.1,14.99c0,0.73,0.01,1.46,0.02,2.19c0.01,0.99,0.02,1.99,0.03,2.98
			c0,0.33,0.01,0.65,0.01,0.98c0,0.38,0.01,0.76,0.01,1.15c0,0.33,0,0.67,0,1c0,0.36,0,0.72,0,1.09c0,0.09,0,0.18,0,0.28
			c-0.15,0.47-0.32,0.93-0.53,1.38c-0.67,1.41-1.62,2.41-2.81,3.16c-0.7,0.45-1.49,0.8-2.34,1.1c-0.28,0.1-0.55,0.19-0.83,0.29
			c-0.43,0.15-0.86,0.31-1.28,0.46c-0.16,0.06-0.32,0.12-0.49,0.18c-0.07,0.03-0.13,0.05-0.2,0.08c-0.38,0.15-0.75,0.3-1.12,0.45
			c-0.22,0.09-0.44,0.18-0.66,0.28c-0.62,0.27-1.22,0.57-1.82,0.9c-0.04,0.02-0.08,0.04-0.12,0.07c-1,0.56-1.97,1.17-2.89,1.85
			c-0.83,0.62-1.62,1.35-1.73,2.44c-0.06,0.6,0.09,1.18,0.44,1.63c0.86-0.06,1.73-0.13,2.59-0.19c0.02,0.06,0.04,0.12,0.08,0.19
			c0.15,0.29,0.31,0.57,0.46,0.85c3.08,5.44,7.8,9.89,13.43,12.64c1.08,0.53,2.04-1.09,0.95-1.62c-4.39-2.14-8.15-5.31-10.99-9.23
			c-0.46-0.63-0.89-1.28-1.3-1.95c-0.21-0.34-0.41-0.68-0.6-1.02c0.4-0.03,0.8-0.06,1.2-0.09c0.17-0.09,0.38-0.11,0.62-0.04
			c0.02,0.01,0.03,0.01,0.05,0.02c0.16,0.06,0.32,0.11,0.49,0.16c0.22-0.36,0.45-0.72,0.68-1.07c1.16-1.78,2.46-3.46,3.88-5.03
			c0.26-0.29,0.53-0.57,0.8-0.86c0.22-0.23,0.46-0.46,0.69-0.69c1.05-1.04,2.15-2.03,3.31-2.95c0.45-0.35,0.9-0.7,1.36-1.03
			c1.15-3.27,2.99-6.29,5.38-8.8c0-0.22,0-0.44,0-0.66c-0.2-2.45-0.35-4.9-0.46-7.36c-0.15-3.3-0.21-6.61-0.19-9.92
			c0.03-5.99,0.34-11.99,0.91-17.96c3.12,3.7,7.56,6.31,12.5,6.37c1.21,0.02,1.21-1.86,0-1.88c-4.73-0.06-8.98-2.82-11.74-6.56
			c-0.25,0.34-0.6,0.81-0.71,0.92c-0.09-0.15-0.17-0.3-0.25-0.45c-0.25-0.45-0.47-0.91-0.69-1.38c-2.03-4.53-3.17-9.79-2.95-14.87
			c0.07-1.52,0.25-3.03,0.58-4.5c0.34-1.52,0.93-3.18,1.75-4.75c0.3-0.57,0.62-1.12,0.98-1.66l-0.07-3.46l0.1,0l-0.39-16.14
			l-1.57-64.98c0,0,0.1-10.6-11.74-11l-29.61,0.51v0l-0.74,0.02l-8.73,0.15l0,0.05l-29.61,0.66c-11.82,0.87-11.22,11.46-11.22,11.46
			l1.67,76.4l0,0l0.62,29.62L112.58,123.61z"/>
		<path class="st9" d="M213.82,227.09c4.45-1.52,8.52-3.94,11.96-7.08c-0.05-0.24-0.09-0.47-0.14-0.71c-0.06-0.3-0.22-0.5-0.43-0.6
			c0.13-0.35,0.24-0.71,0.35-1.07c-3.43,3.43-7.63,6.07-12.24,7.64C212.19,225.67,212.67,227.49,213.82,227.09z"/>
		<path class="st9" d="M178.54,247.7c-3.99,1.75-8.26,2.76-12.58,3.05c0.71,0.33,1.42,0.62,2.15,0.88
			c-0.11,0.18-0.15,0.41-0.11,0.66c0.01,0.05,0.02,0.1,0.03,0.15c3.94-0.46,7.8-1.52,11.46-3.12
			C180.59,248.84,179.63,247.22,178.54,247.7z"/>
		<path class="st10" d="M137.1,211.07c-0.71,2-1.77,3.85-3.14,5.47c-0.77,0.92,0.55,2.26,1.33,1.33c1.58-1.89,2.79-3.98,3.62-6.3
			C139.32,210.43,137.51,209.94,137.1,211.07z"/>
		<path class="st11" d="M212.02,97.24c-0.19-0.25-0.48-0.43-0.89-0.47c-0.55-0.05-0.89,0.19-1.11,0.54
			c-0.25,0.41-0.33,0.97-0.34,1.45c-0.02,0.66,0,1.31,0.06,1.95c-0.02,0.76,0.08,1.52,0.29,2.29c0.01,0.05,0.03,0.1,0.05,0.14
			c0.03,0.19,0.07,0.38,0.11,0.56c0.51,2.49,1.57,4.85,3.14,6.88c0.33,0.42,0.8,0.51,1.17,0.36c0.37-0.15,0.63-0.54,0.55-1.09
			c-0.34-2.11-0.75-4.21-1.23-6.29c-0.46-2-0.98-3.99-1.57-5.96C212.21,97.47,212.12,97.34,212.02,97.24z"/>
		<path class="st11" d="M121.08,175.38c0.33,1.1,1.41,1.73,2.49,1.9c1.31,0.21,2.7,0.05,4-0.17c1.11-0.19,2.56-0.44,3.48-1.14
			c0.15-0.11,0.27-0.24,0.37-0.37c0.59-0.78,0.38-1.84,0.29-2.81c-0.02-0.19-0.04-0.37-0.06-0.56c0-0.02,0-0.04-0.01-0.06
			c-0.02-0.17-0.04-0.35-0.05-0.52c-0.12-1.19-0.24-2.37-0.36-3.56c-0.06-0.58-0.55-1.1-1.19-0.91c-2.32,0.7-4.52,1.77-6.47,3.22
			c-1.46,1.09-2.96,2.49-2.59,4.33C120.98,174.95,121.01,175.17,121.08,175.38z"/>
		<path class="st11" d="M112.34,133.66c0.79-0.37,1.69-0.68,2.44-1.17c0.11-0.07,0.22-0.15,0.32-0.22c0.75-0.58,0.91-1.31,0.85-2.22
			c-0.09-1.46,0.07-2.86,0.51-4.19c0.24-0.72,0.56-1.43,0.98-2.12c0.41-0.68-0.28-1.63-1.06-1.38c-0.02,0.01-0.04,0.01-0.06,0.02
			c-0.59,0.19-1.25,0.45-1.92,0.75c-1.71,0.78-3.53,1.91-4.74,3.34c-0.05,0.01-0.1,0.03-0.15,0.06c0,0.04-0.01,0.07-0.04,0.11
			c-1.55,2.47-1.49,5.51,0.15,7.88C110.53,134.77,111.56,134.03,112.34,133.66z"/>
		<path class="st9" d="M138.17,186.36c-1.22-1.43-2.84-1.81-4.56-1.82c-0.3,0-0.6,0.01-0.9,0.02c-0.32,0.02-0.65,0.05-0.97,0.08
			c-0.06,0.01-0.11,0.01-0.17,0.02c-0.25,0.02-0.5,0.05-0.75,0.08c-0.38,0.04-0.76,0.08-1.14,0.12c-0.03,0-0.06,0-0.09,0.01
			c-0.55,0.04-1.08,0.05-1.59,0.01c-0.91,0.52-1.85,0.98-2.81,1.4c-0.53,0.23-1.06,0.46-1.59,0.67c-1.11,0.45-2.23,0.88-3.34,1.31
			c-1.98,0.29-4,0.23-5.98-0.18c-1.18-0.25-1.68,1.56-0.5,1.81c2.29,0.48,4.6,0.54,6.85,0.19c0.05,0.26,0.08,0.52,0.09,0.78
			c0.13,0.02,0.26,0.04,0.39,0.05c-0.08,0.1-0.17,0.2-0.25,0.29c-1.8,2.06-4.07,3.69-6.62,4.73c-1.11,0.45-0.62,2.27,0.5,1.81
			c3.46-1.41,6.43-3.69,8.63-6.67c0.01-0.01,0.01-0.02,0.02-0.03l0.75-0.01c1.42-0.07,2.83-0.15,4.25-0.23
			c-0.09,2.3-0.58,4.54-1.47,6.69c-0.46,1.12,1.36,1.6,1.81,0.5c0.95-2.32,1.47-4.79,1.54-7.29c1.26-0.07,2.52-0.14,3.78-0.21
			c0.9-0.05,1.8-0.1,2.7-0.16c0.83-0.05,1.65-0.09,2.48-0.14C139.6,188.94,139.1,187.44,138.17,186.36z"/>
		<path class="st9" d="M116.39,171.05c0.11-0.05,0.23-0.1,0.34-0.15c0.4-0.17,0.8-0.34,1.2-0.49c0.12-0.05,0.23-0.09,0.35-0.13
			c-0.08-1.15-0.13-2.3-0.17-3.46c-0.07-1.88-0.12-3.75-0.2-5.62l-0.35-8.51l-0.12-3.03c-0.07-1.62-0.13-3.24-0.2-4.86
			c-0.02-0.58-0.05-1.15-0.07-1.73c-0.58,0.47-1.17,0.92-1.78,1.35l-0.1,0.31c-0.04,0.11-0.07,0.22-0.11,0.33
			c-1.42,0.96-2.95,1.74-4.58,2.31c-1.13,0.4-0.65,2.21,0.5,1.81c1.1-0.38,2.16-0.85,3.17-1.39c-0.04,0.11-0.07,0.22-0.11,0.33
			c-0.41,1.22-0.99,2.5-1.13,3.78c-0.02,0.18-0.04,0.35-0.05,0.52c-1.46,0.86-3.03,1.54-4.68,2.01c-1.16,0.33-0.67,2.15,0.5,1.81
			c1.28-0.37,2.52-0.85,3.71-1.44c-0.05,0.13-0.1,0.26-0.17,0.39c-0.07,0.14-0.14,0.28-0.22,0.42c0.13,0.17,0.22,0.38,0.24,0.6
			c0.53,5.06,0.8,10.14,0.81,15.22c-0.77,0.4-1.54,0.81-2.3,1.23c-0.91,0.51-1.83,1.03-2.73,1.59c0.32,0.35,0.66,0.7,1,1.03
			l4.03-2.65C114.21,172.05,115.29,171.53,116.39,171.05z"/>
		<path class="st12" d="M201.71,166.81c-0.02-0.2-0.03-0.4-0.05-0.61c0,0.22,0,0.44,0,0.66
			C201.68,166.85,201.69,166.83,201.71,166.81z"/>
		<path class="st1" d="M60.32,46.98c0.04,0.73,0.09,1.46,0.13,2.19c0.07,2.84,0.19,5.68,0.36,8.52c0.1,1.55,0.21,3.1,0.34,4.65
			c0.12,1.5,0.17,3.06,0.45,4.54c0.56,2.98,3.95,2.5,6.25,2.5c3.19,0,6.38,0.01,9.57,0.01c1.38,0,2.77,0,4.15,0
			c1.26,3.94,4.02,7.28,7.68,9.23c0.65,0.35,1.71-0.25,1.38-1.06c-1.05-2.57-1.5-5.31-1.3-8.06l0.23,0.01
			c2.26,0.06,4.79,0.38,6.92-0.57c1.96-0.87,2.88-2.74,3.15-4.78c0.33-2.48,0.1-5.05,0.07-7.54c-0.07-5.69-0.14-11.38-0.21-17.07
			c-0.03-2.09,0.04-4.38-1-6.27c-1.09-1.98-3.18-2.59-5.31-2.63c-5.62-0.11-11.27,0.14-16.89,0.22c-2.85,0.04-5.71,0.06-8.56,0.11
			c-1.97,0.03-4.13,0.16-5.76,1.41c-1.91,1.46-2.02,3.83-1.98,6.04C60.02,41.27,60.16,44.13,60.32,46.98z"/>
		<path class="st3" d="M211.3,50.11c0.97,0.5,2.18,0.54,3.25,0.59c0.98,0.05,1.96,0.03,2.94-0.04c-0.02,1.52-0.36,3.03-1,4.46
			c-0.25,0.55,0.54,0.95,1.03,0.72c2.41-1.17,4.3-3.09,5.35-5.36c2.84-0.12,5.67-0.24,8.51-0.36c2.15-0.09,5.63,0.36,7.11-1.65
			c0.79-1.07,0.69-2.5,0.74-3.76c0.06-1.65,0.11-3.3,0.17-4.94c0.11-3.2,0.21-6.41,0.04-9.61c-0.03-0.6-0.06-1.23-0.15-1.85
			c0-1.39-0.17-2.83-1.47-3.74c-1.21-0.84-2.82-0.93-4.28-0.95c-2.12-0.03-4.24-0.05-6.36-0.08c-4.18-0.05-8.38-0.22-12.55-0.15
			c-1.58,0.03-3.14,0.44-3.95,1.78c-0.78,1.28-0.73,2.83-0.75,4.24c-0.01,0.76-0.02,1.52-0.03,2.29c-0.16,4.33-0.32,8.66-0.48,12.99
			C209.33,46.66,209.27,49.05,211.3,50.11z"/>
		<path class="st3" d="M89.38,118.41c0.27-0.62,0.51-1.27,0.69-1.95c1.58-6.01-1.36-12.44-6.62-15.61
			c-3.21-1.93-6.98-2.2-10.41-0.68c-1.45,0.64-2.73,1.56-3.83,2.66c-0.6,0.55-1.15,1.13-1.66,1.71c-2.04,2.35-3.32,5.23-3.2,8.39
			c0.12,3.25,1.48,6.39,3.41,8.97c2.01,2.7,4.58,4.36,8.01,4.47c3.38,0.11,6.68-0.85,9.29-2.72c2.07,1.68,4.56,2.7,7.24,3.01
			c0.81,0.09,1.24-1.09,0.66-1.6C90.99,123.32,89.97,120.92,89.38,118.41z"/>
		<path class="st3" d="M70.1,82.01c-0.82-0.23-1.74,0-2.26,0.75c-0.67,0.96-0.52,2.35,0.4,3.09c0.06,0.05,0.12,0.08,0.19,0.11
			c0.02,0.01,0.04,0.03,0.06,0.04c0.29,0.17,0.62,0.25,0.95,0.25c0.94,0.36,2.14,0,2.7-0.89c0.86-1.38-0.25-3.13-1.76-3.34
			C70.28,82.01,70.19,82.01,70.1,82.01z"/>
		<path class="st3" d="M93.26,12.36c0.04,0.34,0.17,0.64,0.37,0.91c0.28,0.96,1.28,1.72,2.32,1.63c1.62-0.13,2.36-2.07,1.62-3.41
			c-0.05-0.08-0.1-0.16-0.15-0.23c-0.31-0.8-1.04-1.39-1.96-1.36c-1.18,0.04-2.19,0.98-2.23,2.17c0,0.08,0.01,0.15,0.02,0.22
			C93.26,12.31,93.25,12.34,93.26,12.36z"/>
		<path class="st1" d="M232.34,68.79c-1.18,0.04-2.19,0.98-2.23,2.17c0,0.08,0.01,0.15,0.02,0.22c0,0.03,0,0.05,0,0.08
			c0.04,0.34,0.17,0.64,0.37,0.91c0.28,0.96,1.28,1.72,2.32,1.63c1.62-0.13,2.36-2.07,1.62-3.41c-0.05-0.08-0.1-0.16-0.15-0.23
			C233.99,69.35,233.26,68.76,232.34,68.79z"/>
		<path class="st7" d="M201.5,5.1c0.22,0.83,0.88,1.5,1.79,1.57c1.17,0.09,2.29-0.74,2.46-1.91c0.01-0.08,0.01-0.15,0-0.22
			c0-0.03,0-0.05,0-0.08c-0.01-0.34-0.1-0.66-0.27-0.94c-0.17-0.99-1.09-1.85-2.13-1.88c-1.62-0.05-2.57,1.8-1.99,3.21
			C201.41,4.94,201.46,5.03,201.5,5.1z"/>
	</g>
	<g>
		
			<ellipse transform="matrix(0.922 -0.3871 0.3871 0.922 -12.9484 34.3455)" class="st3" cx="78.79" cy="49.32" rx="14.38" ry="14.38"/>
		<path class="st13" d="M77.75,59.98c-0.62,0-1.21-0.3-1.58-0.81l-6.3-8.72c-0.63-0.87-0.43-2.09,0.44-2.71
			c0.87-0.63,2.09-0.43,2.71,0.44l4.58,6.34l7.17-11.83c0.56-0.92,1.75-1.21,2.67-0.66c0.92,0.56,1.21,1.75,0.66,2.67l-8.69,14.34
			c-0.34,0.56-0.93,0.91-1.58,0.94C77.8,59.98,77.78,59.98,77.75,59.98z"/>
	</g>
	<g>
		<path class="st9" d="M224.22,45.69c-0.23-0.25-0.45-0.49-0.68-0.74c-2.29-2.4-4.09-5.35-5-8.54c-0.46-1.61-0.62-3.37-0.03-4.96
			c0.3-0.8,0.74-1.53,1.3-2.16c0.29-0.33,0.62-0.63,0.97-0.9c-0.03,0.02-0.07,0.04-0.1,0.06c-1.26,0.8-2.24,2.01-2.77,3.41
			c-0.04,0.12-0.08,0.24-0.12,0.36c-0.55,1.57-0.39,3.29,0.06,4.86c0.4,1.41,0.98,2.78,1.7,4.08c0.93,1.67,2.09,3.22,3.42,4.59
			c0.28,0.33,0.57,0.66,0.9,0.91c0.18,0.14,0.35,0.13,0.49,0.03c0.07-0.01,0.14-0.05,0.2-0.12c0.14-0.16,0.28-0.31,0.43-0.47
			c-0.02,0.01-0.05,0.02-0.08,0.03C224.6,46.18,224.4,45.89,224.22,45.69z"/>
		<path class="st1" d="M221.28,28.03c-0.17,0.11-0.34,0.23-0.5,0.35c-0.35,0.27-0.68,0.57-0.97,0.9c-0.56,0.63-1.01,1.37-1.3,2.16
			c-0.6,1.6-0.43,3.35,0.03,4.96c0.91,3.19,2.7,6.14,5,8.54c0.23,0.25,0.45,0.49,0.68,0.74c0.18,0.2,0.38,0.5,0.69,0.43
			c0.03-0.01,0.05-0.01,0.08-0.03c0.08-0.04,0.16-0.1,0.22-0.17c0.01-0.01,0.02-0.02,0.03-0.03c2.36-2.59,4.81-5.32,5.8-8.76
			c0.29-0.99,0.43-2.03,0.4-3.06c0-0.16-0.01-0.31-0.02-0.47c-0.14-1.84-0.83-3.62-2.21-4.96c-0.43-0.42-0.91-0.75-1.42-1.01
			c-0.2-0.1-0.41-0.19-0.62-0.27c-0.5-0.19-1.02-0.31-1.54-0.36C224.14,26.84,222.59,27.2,221.28,28.03z M226.81,32.05
			c1.21,0.99,1.43,2.75,0.48,3.99c-0.94,1.22-2.69,1.47-3.95,0.57c-1.26-0.89-1.52-2.66-0.7-3.94c0.03-0.05,0.07-0.09,0.11-0.11
			c0.02-0.05,0.04-0.09,0.08-0.13C223.83,31.3,225.61,31.08,226.81,32.05z"/>
		<path class="st14" d="M222.83,32.44c-0.04,0.04-0.06,0.09-0.08,0.13c-0.04,0.03-0.08,0.06-0.11,0.11
			c-0.82,1.27-0.56,3.05,0.7,3.94c1.26,0.89,3.01,0.65,3.95-0.57c0.96-1.24,0.74-3.01-0.48-3.99
			C225.61,31.08,223.83,31.3,222.83,32.44z"/>
	</g>
	<path class="st1" d="M82.53,119.57c-0.17-0.26-0.36-0.45-0.62-0.62c-0.03-0.02-0.05-0.03-0.08-0.05c-0.13-0.07-0.28-0.14-0.43-0.17
		c-0.31-0.08-0.61-0.07-0.92-0.01c-0.09,0.02-0.15,0.05-0.25,0.09c-0.1,0.04-0.17,0.07-0.26,0.12c-0.52,0.35-0.82,0.88-0.83,1.51
		c0,0.22,0.05,0.46,0.14,0.67c0.02,0.06,0.04,0.13,0.07,0.19c0.09,0.22,0.21,0.41,0.38,0.57c0.1,0.09,0.23,0.19,0.34,0.26
		c0.01,0.01,0.03,0.01,0.04,0.02c0.11,0.05,0.26,0.13,0.38,0.16c0.49,0.12,0.97,0.06,1.42-0.18c0.06-0.03,0.16-0.12,0.17-0.13
		c0,0,0.13-0.09,0.17-0.13c0.1-0.1,0.19-0.23,0.27-0.34c0.02-0.03,0.03-0.06,0.05-0.09c0.06-0.14,0.14-0.28,0.17-0.43
		c0.07-0.34,0.07-0.59,0-0.93c-0.01-0.03-0.02-0.06-0.03-0.1C82.66,119.85,82.61,119.7,82.53,119.57z"/>
	<path class="st1" d="M77.13,119.27c0.13-1.12,0.98-2.17,2.02-2.58c1.15-0.45,2.51-0.16,3.41,0.67c0.92,0.85,2.3-0.52,1.38-1.38
		c-1.43-1.33-3.59-1.85-5.44-1.12c-1.87,0.74-3.08,2.44-3.32,4.41c-0.06,0.52,0.49,0.98,0.98,0.98
		C76.74,120.25,77.07,119.8,77.13,119.27z"/>
	<path class="st1" d="M82.92,112.69c0.48,0.21,1.05,0.14,1.34-0.35c0.24-0.41,0.14-1.12-0.35-1.34c-2.43-1.06-5.25-1.48-7.77-0.44
		c-2.15,0.88-3.93,2.69-4.43,5c-0.27,1.23,1.61,1.75,1.88,0.52c0.37-1.68,1.62-3.03,3.2-3.69
		C78.73,111.58,81.02,111.86,82.92,112.69z"/>
	<path class="st1" d="M83.49,108.39c0.49,0.19,1.07-0.21,1.2-0.68c0.15-0.55-0.19-1.02-0.68-1.2c-3.36-1.26-7.18-1.42-10.51,0.02
		c-2.81,1.22-5.09,3.59-6.03,6.53c-0.38,1.2,1.5,1.71,1.88,0.52c0.78-2.43,2.75-4.36,5.08-5.34
		C77.33,107.02,80.61,107.3,83.49,108.39z"/>
</g>
</svg>
