<?xml version="1.0" encoding="utf-8"?>
<!-- Generator: Adobe Illustrator 26.0.3, SVG Export Plug-In . SVG Version: 6.00 Build 0)  -->
<svg version="1.1" id="Layer_1" xmlns="http://www.w3.org/2000/svg" xmlns:xlink="http://www.w3.org/1999/xlink" x="0px" y="0px"
	 viewBox="0 0 300 300" style="enable-background:new 0 0 300 300;" xml:space="preserve">
<style type="text/css">
	.st0{fill:#91E79C;}
	.st1{fill:#D9893C;}
	.st2{fill:#C67C40;}
	.st3{fill:#273437;}
	.st4{fill:#763E47;}
	.st5{fill:#562E36;}
	.st6{fill:#FF9881;}
	.st7{fill:#FFFFFF;}
	.st8{fill:#EAAA2B;}
	.st9{fill:#E17720;}
	.st10{fill:#758A54;}
	.st11{fill:#2F3A42;}
	.st12{fill:#8A3434;}
	.st13{fill:#FFC460;}
	.st14{fill:#A08063;}
	.st15{fill:#493933;}
	.st16{fill:#C04F4F;}
</style>
<g>
	<polygon class="st0" points="125.6,99.46 176.62,99.46 196.03,268.95 95.25,268.95 	"/>
	<path class="st0" d="M176.77,100.82l-0.79-0.33c-2.16,5.58-6.69,11.09-10.61,15.15c-3.55,3.68-4.68,9.04-2.94,13.84
		c5.55,15.3-4.76,30.66-6.4,41.35c-1.91,12.42,5.43,19.81,2.71,34.25c-2.72,14.44-9.28,22.46-12.56,36.54
		c-3.29,14.08,1.14,26.27,1.14,26.27l9.99,1.05h38.71L176.77,100.82z"/>
	<path class="st1" d="M125.6,99.46l-22.35,6.82c-19.19,5.86-34.28,20.75-40.39,39.86l-29.42,92.01c-4.87,15.23,6.5,30.8,22.49,30.8
		h80.64c0,0,5.68-11.66,3.89-26c-1.79-14.35-7.47-23.01-8.67-37.66c-1.2-14.65,6.87-21.22,6.28-33.77
		c-0.51-10.81-9.15-27.16-2.03-41.8c2.23-4.6,1.67-10.05-1.47-14.07C131.09,111.19,127.17,105.24,125.6,99.46z"/>
	<polygon class="st2" points="68.06,268.95 121.02,268.95 107.07,245.46 	"/>
	<path class="st3" d="M89.22,269.46c-0.03,0-0.07,0-0.1-0.01c-0.28-0.06-0.46-0.33-0.4-0.61l9.04-44.81
		c-16.26-22.4-14.99-74.65-14.97-75.18c0.01-0.28,0.24-0.5,0.51-0.5c0,0,0.01,0,0.01,0c0.28,0.01,0.51,0.24,0.5,0.53
		c-0.01,0.52-1.28,52.72,14.91,74.72c0.09,0.12,0.12,0.26,0.09,0.41l-9.09,45.03C89.68,269.29,89.46,269.46,89.22,269.46z"/>
	<path class="st4" d="M192.43,62.84c1.9-7.02,0.38-14.23-4.93-18.17c-1.78-1.32-2.8-3.4-3-5.61c-1.2-13.15-11.08-29.18-33.4-29.18
		c-22.32,0-32.2,16.02-33.4,29.18c-0.2,2.21-1.22,4.29-3,5.61c-5.31,3.94-6.83,11.15-4.93,18.17c0.79,2.94-0.16,6.04-2.36,8.14
		c-2.68,2.55-3.89,6.01-4.42,8.9c-0.53,2.85,1.71,5.48,4.61,5.48h43.49h43.49c2.9,0,5.14-2.62,4.61-5.48
		c-0.53-2.88-1.74-6.34-4.42-8.9C192.59,68.87,191.64,65.77,192.43,62.84z"/>
	<g>
		<path class="st5" d="M194.94,85.86c-0.02,0-0.03,0-0.05,0c-0.28-0.03-0.49-0.28-0.47-0.56c0-0.05,0.4-5.14-4.45-9.84
			c-3.18-3.08-5.83-7.1-3.74-15.61c0.07-0.28,0.35-0.44,0.62-0.38c0.28,0.07,0.44,0.35,0.38,0.62c-1.97,8,0.49,11.76,3.45,14.62
			c5.22,5.06,4.77,10.44,4.75,10.67C195.42,85.66,195.2,85.86,194.94,85.86z"/>
		<path class="st5" d="M187.98,85.86c-0.02,0-0.03,0-0.05,0c-0.28-0.03-0.49-0.28-0.47-0.56c0-0.05,0.4-5.14-4.45-9.84
			c-3.18-3.08-5.83-7.1-3.74-15.61c0.07-0.28,0.35-0.44,0.62-0.38c0.28,0.07,0.44,0.35,0.38,0.62c-1.97,8,0.49,11.76,3.45,14.62
			c5.22,5.06,4.77,10.44,4.75,10.67C188.46,85.66,188.24,85.86,187.98,85.86z"/>
		<path class="st5" d="M181.01,85.86c-0.02,0-0.03,0-0.05,0c-0.28-0.03-0.49-0.28-0.46-0.56c0-0.05,0.4-5.14-4.44-9.84
			c-3.18-3.08-5.83-7.1-3.74-15.61c0.07-0.28,0.35-0.44,0.62-0.38c0.28,0.07,0.44,0.35,0.38,0.62c-1.97,8,0.49,11.76,3.45,14.62
			c5.22,5.06,4.77,10.44,4.75,10.67C181.5,85.66,181.28,85.86,181.01,85.86z"/>
		<path class="st5" d="M107.28,85.86c-0.26,0-0.49-0.2-0.51-0.47c-0.02-0.23-0.46-5.62,4.75-10.67c2.96-2.86,5.42-6.62,3.45-14.62
			c-0.07-0.28,0.1-0.55,0.38-0.62c0.28-0.07,0.55,0.1,0.62,0.38c2.09,8.51-0.56,12.53-3.73,15.61c-4.85,4.69-4.45,9.79-4.45,9.84
			c0.03,0.28-0.18,0.53-0.47,0.56C107.31,85.86,107.29,85.86,107.28,85.86z"/>
		<path class="st5" d="M114.24,85.86c-0.26,0-0.49-0.2-0.51-0.47c-0.02-0.23-0.46-5.62,4.75-10.67c2.96-2.86,5.42-6.62,3.45-14.62
			c-0.07-0.28,0.1-0.55,0.38-0.62c0.27-0.07,0.55,0.1,0.62,0.38c2.09,8.51-0.56,12.53-3.74,15.61c-4.85,4.69-4.45,9.79-4.45,9.84
			c0.03,0.28-0.18,0.53-0.47,0.56C114.27,85.86,114.25,85.86,114.24,85.86z"/>
		<path class="st5" d="M121.2,85.86c-0.26,0-0.49-0.2-0.51-0.47c-0.02-0.23-0.46-5.62,4.75-10.67c2.96-2.86,5.42-6.62,3.45-14.62
			c-0.07-0.28,0.1-0.55,0.38-0.62c0.27-0.07,0.55,0.1,0.62,0.38c2.09,8.51-0.56,12.53-3.74,15.61c-4.85,4.69-4.45,9.79-4.44,9.84
			c0.03,0.28-0.18,0.53-0.46,0.56C121.23,85.86,121.22,85.86,121.2,85.86z"/>
	</g>
	<path class="st6" d="M169.35,96.78c-3.31-1.23-5.51-4.39-5.51-7.92V73.85h-25.45v15.01c0,3.53-2.2,6.69-5.51,7.92l-7.22,2.67
		c4.19,13.16,14.83,16.17,25.45,16.17c10.62,0,21.26-3.01,25.45-16.17L169.35,96.78z"/>
	<g>
		<path class="st1" d="M176.62,99.46l22.35,6.82c19.19,5.86,34.28,20.75,40.39,39.86l29.42,92.01c4.87,15.23-6.5,30.8-22.49,30.8
			h-80.64c0,0-5.68-11.66-3.89-26c1.79-14.35,7.47-23.01,8.67-37.66c1.2-14.65-6.87-21.22-6.28-33.77
			c0.51-10.81,9.15-27.16,2.03-41.8c-2.23-4.6-1.67-10.05,1.47-14.07C171.12,111.19,175.05,105.24,176.62,99.46z"/>
		<path class="st3" d="M176.62,99.46c-1.57,5.78-5.49,11.73-8.96,16.18c-3.15,4.03-3.71,9.48-1.47,14.08
			c0.18,0.37,0.34,0.74,0.5,1.11c11.94-10.44,17.91-22.62,20.2-28.23L176.62,99.46z"/>
		<path class="st3" d="M212.99,269.46c-0.24,0-0.45-0.17-0.5-0.41l-9.09-45.03c-0.03-0.14,0-0.29,0.09-0.41
			c16.19-22.01,14.92-74.2,14.91-74.72c-0.01-0.28,0.22-0.52,0.5-0.53c0,0,0.01,0,0.01,0c0.28,0,0.51,0.22,0.51,0.5
			c0.01,0.53,1.29,52.78-14.97,75.18l9.04,44.81c0.06,0.28-0.12,0.55-0.4,0.61C213.06,269.46,213.03,269.46,212.99,269.46z"/>
		<path class="st3" d="M207.92,223c-0.14,0-0.28-0.06-0.39-0.17c-0.19-0.21-0.17-0.54,0.05-0.73l31.23-27.43
			c0.21-0.19,0.54-0.17,0.73,0.05c0.19,0.21,0.17,0.54-0.05,0.73l-31.23,27.43C208.16,222.96,208.04,223,207.92,223z"/>
		<path class="st3" d="M208.87,226.65c-0.25,0-0.48-0.19-0.51-0.45c-0.04-0.28,0.16-0.54,0.44-0.57l28.54-3.65
			c0.28-0.05,0.54,0.16,0.57,0.44c0.04,0.28-0.16,0.54-0.44,0.57l-28.54,3.65C208.91,226.65,208.89,226.65,208.87,226.65z"/>
		<path class="st3" d="M174.1,137.76c-1.74,0-3.16-1.42-3.16-3.16c0-1.74,1.42-3.16,3.16-3.16c1.74,0,3.16,1.42,3.16,3.16
			C177.25,136.34,175.84,137.76,174.1,137.76z M174.1,132.47c-1.17,0-2.13,0.95-2.13,2.13c0,1.17,0.95,2.13,2.13,2.13
			c1.17,0,2.13-0.95,2.13-2.13C176.23,133.43,175.27,132.47,174.1,132.47z"/>
	</g>
	<path class="st1" d="M126.35,242.31c-12.31,8.62-34.52-50.75-34.52-50.75l-42.15,24.48c-7.23,4.15-12.64,10.86-15.18,18.8
		l-1.06,3.32c-4.87,15.23,6.5,30.8,22.49,30.8h20.04c12.44,0,24.47-4.45,33.92-12.54L126.35,242.31z"/>
	<path class="st3" d="M125.6,99.46c1.57,5.78,5.49,11.73,8.96,16.18c3.14,4.03,3.71,9.48,1.47,14.08c-0.18,0.37-0.34,0.74-0.5,1.11
		c-11.94-10.44-17.91-22.62-20.2-28.23L125.6,99.46z"/>
	<path class="st1" d="M158.02,294.94c-32.98,0-76.32-11.48-94.92-26.11h78.85L158.02,294.94z"/>
	<g>
		<path class="st7" d="M158.02,245.19h-55.15c0,30.95,24.93,49.75,55.15,49.75s55.15-18.8,55.15-49.75H158.02z"/>
		<ellipse class="st3" cx="158.02" cy="245.19" rx="55.15" ry="11.39"/>
		<path class="st8" d="M187.33,239.78c-12.47-0.32-15.64-1.8-24.35-3.17c-8.71-1.37-12.22-0.63-20.57,1.8
			c-8.35,2.43-17.44,3.28-24.52,3.91c-6,0.54-10.77,4.11-9.96,7.64c8.73,3.91,27.87,6.62,50.09,6.62c22.04,0,41.05-2.67,49.88-6.53
			C208.05,244.51,197.66,240.04,187.33,239.78z"/>
		<g>
			<path class="st9" d="M162.92,245.95c2.48,0.39,4.49,0.79,6.44,1.17c4.84,0.95,9.02,1.78,17.96,2c5.22,0.13,10.27,1.33,14.02,3.11
				c0.35-0.09,0.71-0.18,1.05-0.28c-3.89-2.03-9.32-3.38-15.05-3.53c-8.88-0.23-13.03-1.04-17.84-1.99
				c-1.95-0.38-3.97-0.78-6.47-1.18c-8.68-1.37-12.17-0.68-20.72,1.81c-8.47,2.47-17.71,3.29-24.45,3.9
				c-1.53,0.14-2.99,0.47-4.32,0.96c0.41,0.11,0.83,0.23,1.26,0.34c0.99-0.29,2.04-0.5,3.12-0.6c6.77-0.61,16.05-1.44,24.59-3.92
				C150.94,245.29,154.38,244.6,162.92,245.95z"/>
			<path class="st9" d="M187.34,241.68c-8.88-0.23-13.03-1.04-17.84-1.99c-1.95-0.38-3.97-0.78-6.47-1.18
				c-8.68-1.37-12.17-0.68-20.72,1.81c-8.47,2.47-17.71,3.29-24.45,3.9c-4.77,0.43-8.91,2.74-10.08,5.63
				c-0.01,0.01-0.01,0.03-0.01,0.04c0.21,0.1,0.42,0.19,0.64,0.29c0.01-0.02,0.01-0.04,0.02-0.07c1.05-2.61,5.05-4.8,9.49-5.2
				c6.77-0.61,16.05-1.44,24.59-3.92c8.43-2.46,11.87-3.14,20.42-1.79c2.48,0.39,4.49,0.79,6.44,1.17c4.84,0.95,9.02,1.78,17.96,2
				c9.19,0.23,17.87,3.74,19.82,7.99c0.22-0.09,0.44-0.18,0.65-0.26C205.73,245.54,196.95,241.92,187.34,241.68z"/>
			<path class="st9" d="M187.34,250.68c-8.88-0.23-13.03-1.04-17.84-1.99c-1.95-0.38-3.97-0.78-6.47-1.18
				c-8.68-1.37-12.17-0.68-20.72,1.81c-8.18,2.38-17.05,3.23-23.72,3.83c0.78,0.16,1.58,0.33,2.4,0.48
				c6.36-0.6,14.2-1.51,21.51-3.64c8.43-2.46,11.87-3.14,20.42-1.79c2.48,0.39,4.49,0.79,6.44,1.17c4.84,0.95,9.02,1.78,17.96,2
				c3.69,0.09,7.3,0.72,10.42,1.71c0.46-0.1,0.92-0.2,1.36-0.3C195.68,251.57,191.6,250.79,187.34,250.68z"/>
			<path class="st9" d="M169.5,244.19c-1.95-0.38-3.97-0.78-6.47-1.18c-8.68-1.37-12.17-0.68-20.72,1.81
				c-8.47,2.47-17.71,3.29-24.45,3.9c-2.72,0.24-5.22,1.11-7.1,2.35c0.28,0.1,0.58,0.19,0.87,0.28c1.73-1.01,3.94-1.72,6.29-1.93
				c6.77-0.61,16.05-1.44,24.59-3.92c8.43-2.46,11.87-3.14,20.42-1.79c2.48,0.39,4.49,0.79,6.44,1.17c4.84,0.95,9.02,1.78,17.96,2
				c6.58,0.17,12.88,2.02,16.65,4.61c0.29-0.09,0.57-0.18,0.84-0.27c-3.83-2.85-10.42-4.86-17.48-5.04
				C178.46,245.95,174.3,245.14,169.5,244.19z"/>
			<path class="st9" d="M187.34,243.93c-8.88-0.23-13.03-1.04-17.84-1.99c-1.95-0.38-3.97-0.78-6.47-1.18
				c-8.68-1.37-12.17-0.68-20.72,1.81c-8.47,2.47-17.71,3.29-24.45,3.9c-3.77,0.34-7.13,1.86-8.96,3.9c0.23,0.09,0.45,0.19,0.7,0.28
				c1.75-1.81,4.9-3.18,8.32-3.48c6.77-0.61,16.05-1.44,24.59-3.92c8.43-2.46,11.87-3.14,20.42-1.79c2.48,0.39,4.49,0.79,6.44,1.17
				c4.84,0.95,9.02,1.78,17.96,2c7.87,0.2,15.36,2.8,18.57,6.22c0.23-0.08,0.47-0.17,0.7-0.25
				C203.34,246.89,195.66,244.14,187.34,243.93z"/>
		</g>
		<path class="st10" d="M134.58,250.72l-6.18-15.61c-1.65-4.04,2.71-8,6.5-5.85c0.05,0.03,0.11,0.06,0.16,0.09
			c4.15-5.29,9.29-1.98,9.29-1.98s4.25-3.92,9.46-0.89c0.88-0.63,1.73-1.05,2.52-1.32c3.21-1.1,6.46,1.55,6.09,4.92l-1.84,16.7
			L134.58,250.72z"/>
		<path class="st11" d="M158.02,256.58c15.07,0,28.72-1.25,38.67-3.27c-5.84-7.62-22.13-1.2-29.87-6.99
			c-8.43-6.32-11.61-6.45-17.79-4.62c-4.1,1.21-8.78,3.24-16.64,3.5c-7.23,0.24-11.43,4.88-13.48,8.03
			C128.9,255.3,142.73,256.58,158.02,256.58z"/>
		<polygon class="st11" points="139.13,247.75 135.5,231.53 136.18,231.38 139.82,247.6 		"/>
		
			<rect x="145.53" y="229.08" transform="matrix(0.9915 -0.1302 0.1302 0.9915 -29.6866 21.023)" class="st11" width="0.7" height="16.77"/>
		
			<rect x="146.17" y="235.92" transform="matrix(0.0379 -0.9993 0.9993 0.0379 -87.9293 381.205)" class="st11" width="15.66" height="0.7"/>
		<path class="st12" d="M188.7,246.25c0,3.92-3.17,7.09-7.09,7.09c-3.92,0-7.09-3.17-7.09-7.09c0-3.92,3.17-7.09,7.09-7.09
			C185.52,239.16,188.7,242.33,188.7,246.25z"/>
		<path class="st11" d="M182.8,246.08c0,2.42,1.21,4.55,3.06,5.83c1.72-1.29,2.84-3.35,2.84-5.66c0-2.42-1.21-4.55-3.06-5.83
			C183.92,241.71,182.8,243.77,182.8,246.08z"/>
		<path class="st12" d="M198.97,244.56c0,3.92-3.17,7.09-7.09,7.09s-7.09-3.17-7.09-7.09c0-3.92,3.17-7.09,7.09-7.09
			S198.97,240.64,198.97,244.56z"/>
		<g>
			<path class="st8" d="M158.02,256.58c14.47,0,27.63-1.15,37.47-3.04c-4.87-8.19-20.51-1.66-27.82-7.21
				c-7.72-5.86-10.62-5.98-16.28-4.29c-3.75,1.12-8.36,4.04-15.56,4.29c-7.66,0.26-11.3,4.96-12.77,7.67
				C132.58,255.61,144.75,256.58,158.02,256.58z"/>
			<g>
				<path class="st9" d="M151.29,250.92c-1.07,0.32-2.21,0.79-3.42,1.28c-3.09,1.26-6.93,2.82-12.05,2.99
					c-0.78,0.03-1.5,0.11-2.2,0.22c1.29,0.13,2.6,0.25,3.95,0.36c4.39-0.42,7.78-1.79,10.56-2.93c1.2-0.49,2.33-0.95,3.36-1.26
					c5.42-1.62,8.19-1.67,15.97,4.23c0.28,0.21,0.59,0.38,0.89,0.56c0.47-0.02,0.94-0.04,1.41-0.06c-0.67-0.29-1.31-0.63-1.88-1.06
					C160.3,249.5,157.24,249.14,151.29,250.92z"/>
				<path class="st9" d="M165.2,256.48c0.39-0.01,0.79-0.02,1.18-0.03c-6.51-4.68-9.55-4.89-15.09-3.23
					c-1.07,0.32-2.21,0.79-3.42,1.28c-1.35,0.55-2.85,1.15-4.53,1.68c0.63,0.04,1.26,0.07,1.9,0.1c1.03-0.38,2-0.76,2.9-1.13
					c1.2-0.49,2.33-0.95,3.36-1.26C156.35,252.44,159.09,252.26,165.2,256.48z"/>
				<path class="st9" d="M162.98,256.53c-4.36-2.47-7.21-2.35-11.68-1.02c-0.78,0.23-1.62,0.56-2.48,0.9
					c0.61,0.02,1.23,0.04,1.85,0.06c0.28-0.1,0.57-0.21,0.84-0.29c3.76-1.12,6.25-1.49,10.03,0.37
					C162.01,256.55,162.49,256.54,162.98,256.53z"/>
				<path class="st9" d="M167.88,250.65c-7.58-5.75-10.64-6.12-16.59-4.34c-1.07,0.32-2.21,0.79-3.42,1.28
					c-3.09,1.26-6.93,2.82-12.05,2.99c-4.58,0.15-7.75,1.9-9.91,3.87c0.3,0.04,0.6,0.09,0.91,0.13c2.04-1.71,4.95-3.16,9.03-3.3
					c5.24-0.18,9.15-1.77,12.28-3.04c1.2-0.49,2.33-0.95,3.36-1.26c5.42-1.62,8.19-1.67,15.97,4.23c3.39,2.57,8.49,2.62,13.42,2.67
					c3.08,0.03,6.07,0.07,8.61,0.66c0.55-0.08,1.09-0.16,1.62-0.24c-2.96-1.05-6.62-1.09-10.23-1.12
					C176.07,253.13,171.08,253.09,167.88,250.65z"/>
				<path class="st9" d="M167.88,252.96c-7.58-5.76-10.64-6.12-16.59-4.34c-1.07,0.32-2.21,0.79-3.42,1.28
					c-3.09,1.26-6.93,2.82-12.05,3c-2.97,0.1-5.33,0.87-7.23,1.94c0.41,0.05,0.82,0.11,1.23,0.16c1.65-0.77,3.63-1.32,6.02-1.4
					c5.25-0.18,9.15-1.77,12.29-3.05c1.19-0.49,2.32-0.95,3.36-1.26c5.41-1.62,8.19-1.67,15.97,4.23c2.13,1.62,4.95,2.24,7.97,2.48
					c2.12-0.15,4.18-0.32,6.17-0.51c-0.24,0-0.48-0.01-0.72-0.01C176.07,255.44,171.08,255.39,167.88,252.96z"/>
				<path class="st9" d="M167.88,248.35c-7.58-5.75-10.64-6.12-16.59-4.34c-1.07,0.32-2.21,0.79-3.42,1.28
					c-3.09,1.26-6.93,2.82-12.05,2.99c-6.12,0.21-9.75,3.24-11.77,5.88c0.27,0.04,0.53,0.09,0.79,0.13c1.96-2.44,5.37-5.12,11-5.31
					c5.24-0.18,9.15-1.77,12.28-3.04c1.2-0.49,2.33-0.95,3.36-1.26c5.42-1.62,8.19-1.67,15.97,4.23c3.39,2.57,8.49,2.62,13.42,2.67
					c4.84,0.05,9.48,0.1,12.45,2.36c0.3-0.05,0.6-0.11,0.9-0.16c-3.16-2.8-8.31-2.85-13.34-2.9
					C176.07,250.83,171.08,250.79,167.88,248.35z"/>
			</g>
		</g>
		<polygon class="st13" points="157.96,224.21 159.9,223.19 114.64,139.36 111.78,140.86 		"/>
		<g>
			<path class="st8" d="M143.04,246.92L143.04,246.92c0.23-5.15,1.68-9.14,2.96-12.67c1.38-3.81,2.57-7.1,2.06-11.05
				c-0.92-7.11-1.96-15.14,1.15-18.27c1.01-1.02,2.34-1.43,3.97-1.23c4.11,0.51,6.51,4.73,8.84,8.81c1.73,3.03,3.51,6.15,5.92,7.79
				c9.09,6.16,8.1,12.08,7.15,17.8c-0.32,1.9,0.07,3.32,1.15,4.24c1.11,0.95,2.69,1.13,3.4,0.89l0.71,2.14
				c-1.41,0.47-3.84,0.17-5.58-1.32c-1.18-1.01-2.48-2.92-1.91-6.28c0.96-5.75,1.71-10.26-6.18-15.61
				c-2.84-1.93-4.76-5.29-6.61-8.53c-2.15-3.76-4.17-7.32-7.16-7.69c-1.2-0.15-1.77,0.26-2.09,0.58
				c-2.34,2.35-1.24,10.78-0.52,16.36c0.59,4.53-0.75,8.23-2.17,12.14c-1.08,2.98-2.19,6.04-2.64,9.8
				C145.32,246.05,144.28,246.98,143.04,246.92z"/>
		</g>
		<polygon class="st13" points="161.87,222.25 159.9,223.19 120,136.68 122.91,135.3 		"/>
		<path class="st14" d="M116.01,238.33c-0.24,0-0.45-0.16-0.5-0.4c-0.06-0.28,0.11-0.55,0.39-0.61c0.05-0.01,5.44-1.22,9.53-1.83
			c0.28-0.04,0.54,0.15,0.58,0.43c0.04,0.28-0.15,0.54-0.43,0.58c-4.06,0.6-9.41,1.8-9.46,1.81
			C116.08,238.32,116.05,238.33,116.01,238.33z"/>
	</g>
	<path class="st3" d="M239.1,296.84c-13.49,0-38.84-23.78-38.84-23.78l42.49-13.63C242.74,259.43,253.05,296.84,239.1,296.84z"/>
	<g>
		<path class="st6" d="M221.19,252.55l-27.46,13.73l-21.64-6.08c-1.51-0.42-3.08,0.47-3.48,1.99l0,0c-0.32,1.22,0.22,2.51,1.31,3.14
			l9.8,5.67l-10.87,2.47c-2.52,0.57-5.1,0.78-7.68,0.62l-7.59-0.47c-2.08-0.13-3.82,1.58-3.72,3.67l0.39,8.15
			c0.08,1.62,1.26,2.98,2.86,3.28l7.42,1.39l11.02,1.03l-11.65,0.79l-5.12-0.57c-1.44-0.16-2.68,0.99-2.63,2.44l0,0
			c0.04,1.16,0.92,2.13,2.07,2.27l6.08,0.78l12.07,0.37c7.44,0.23,14.8-1.67,21.2-5.48l8.35-4.96l40.27-8.64L221.19,252.55z"/>
		<path class="st0" d="M212.94,260.85c0,0,9.53,4.25,12.59,15.44c0.78,2.85,3.56,4.65,6.45,4.03l6.45-1.38l-17.96-18.09H212.94z"/>
		<path class="st15" d="M164.3,280.54c-0.39,0-0.78-0.02-1.17-0.06l-11.65-1.11c-0.28-0.03-0.49-0.28-0.46-0.56
			c0.03-0.28,0.29-0.48,0.56-0.46l11.65,1.11c0.99,0.1,1.99,0.06,2.98-0.11l10.02-1.72c0.28-0.05,0.54,0.14,0.59,0.42
			c0.05,0.28-0.14,0.55-0.42,0.59l-10.02,1.72C165.69,280.48,164.99,280.54,164.3,280.54z"/>
		<path class="st15" d="M164.75,285.64l-13.28-1.27c-0.28-0.03-0.49-0.28-0.46-0.56c0.03-0.28,0.29-0.48,0.56-0.46l13.22,1.26
			l11.51-0.25c0,0,0.01,0,0.01,0c0.28,0,0.51,0.22,0.51,0.5c0.01,0.28-0.22,0.52-0.5,0.53L164.75,285.64z"/>
	</g>
	<path class="st1" d="M266.14,230.08c6.2,20.05,26.18,66.77-27.04,66.77c11.26-0.83-14.32-35.51-32.92-36.78L266.14,230.08z"/>
	<path class="st3" d="M263.04,257.88c-0.08,0-0.17-0.02-0.25-0.06c-15.84-8.7-32.83-7.25-33-7.23c-0.28,0.02-0.53-0.18-0.56-0.46
		c-0.03-0.28,0.18-0.53,0.46-0.56c0.17-0.02,17.47-1.5,33.59,7.35c0.25,0.14,0.34,0.45,0.2,0.7
		C263.4,257.78,263.22,257.88,263.04,257.88z"/>
	<path class="st3" d="M236.56,247.89c-0.27,0-0.5-0.22-0.51-0.49c-0.01-0.28,0.21-0.52,0.49-0.53l23.15-0.95
		c0.29-0.03,0.52,0.21,0.53,0.49c0.01,0.28-0.21,0.52-0.49,0.53l-23.15,0.95C236.57,247.89,236.57,247.89,236.56,247.89z"/>
	<g>
		<path class="st6" d="M148.25,178.33l0.57-0.48c1.44-1.21,1.73-3.31,0.67-4.87l-4.98-7.36c-1.1-1.63-3.04-2.49-4.99-2.2l-11.5,1.67
			c-2.49,0.36-4.75,1.63-6.35,3.57l-9.48,11.45l-20.28,11.65c0.61,1.61,4.83,12.63,10.39,24.06l18.95-21.21
			c2.03,0.95,4.33,1.15,6.49,0.55l12.43-3.43l2.63,0.15c1.96,0.11,3.67-1.31,3.93-3.25l0.09-0.71l0.19-0.02
			c1.49-0.16,2.54-1.54,2.3-3.02L148.25,178.33z"/>
		<g>
			<path class="st15" d="M147.88,177.5c-0.24,0-0.45-0.17-0.5-0.41l-0.63-2.93c-0.25-1.17-1.26-2.04-2.46-2.11l-16.99-0.97
				c-0.28-0.02-0.5-0.26-0.48-0.54c0.02-0.28,0.27-0.51,0.54-0.48l16.99,0.97c1.66,0.1,3.06,1.3,3.41,2.92l0.63,2.93
				c0.06,0.28-0.12,0.55-0.4,0.61C147.95,177.5,147.92,177.5,147.88,177.5z"/>
			<path class="st15" d="M135.02,171.52c-0.22,0-0.42-0.14-0.49-0.36c-0.08-0.27,0.07-0.56,0.34-0.64l6.14-1.91
				c0.27-0.08,0.56,0.07,0.64,0.34c0.08,0.27-0.07,0.56-0.34,0.64l-6.14,1.91C135.12,171.51,135.07,171.52,135.02,171.52z"/>
			<path class="st15" d="M146.51,186.7c-0.26,0-0.48-0.2-0.51-0.46l-0.32-3.28c-0.16-1.61-1.39-2.88-2.99-3.08l-12.1-1.58
				c-0.28-0.04-0.48-0.3-0.44-0.58c0.04-0.28,0.29-0.48,0.58-0.44l12.09,1.58c2.08,0.27,3.67,1.92,3.88,4l0.32,3.28
				c0.03,0.28-0.18,0.53-0.46,0.56C146.54,186.69,146.53,186.7,146.51,186.7z"/>
			<path class="st15" d="M132.03,185.37c-0.27,0-0.5-0.21-0.51-0.49c-0.01-0.28,0.21-0.52,0.49-0.54l14.28-0.66
				c0.28-0.04,0.52,0.21,0.54,0.49c0.01,0.28-0.21,0.52-0.49,0.54l-14.28,0.66C132.04,185.37,132.04,185.37,132.03,185.37z"/>
			<path class="st15" d="M140.81,190.98c-0.17,0-0.33-0.08-0.43-0.24c-0.15-0.24-0.08-0.56,0.16-0.71l3.09-1.98
				c0.24-0.15,0.56-0.08,0.71,0.16c0.15,0.24,0.08,0.56-0.16,0.71l-3.09,1.98C141,190.95,140.9,190.98,140.81,190.98z"/>
		</g>
		<path class="st0" d="M109.69,207.56c-5.72,6.4-17.78-15.79-17.78-15.79c0.61,1.61,4.83,12.63,10.39,24.06L109.69,207.56z"/>
	</g>
	<g>
		<g>
			<path class="st6" d="M133.59,51.86c-0.07-0.08-3.26-2.71-5.83-4.84c-1.93-1.59-4.65-1.8-6.8-0.52l0,0
				c-2.35,1.4-3.44,4.22-2.63,6.83l0,0c0.77,2.48,2.61,4.49,5.02,5.46l8.44,3.39L133.59,51.86z"/>
			<path class="st15" d="M131.57,57.35c-0.18,0-0.36-0.1-0.45-0.27c-4.41-7.98-9.22-6.9-9.42-6.85c-0.28,0.07-0.55-0.1-0.62-0.37
				s0.09-0.55,0.37-0.62c0.23-0.06,5.76-1.38,10.58,7.35c0.14,0.25,0.05,0.56-0.2,0.7C131.74,57.33,131.65,57.35,131.57,57.35z"/>
			<path class="st15" d="M126.08,55.92c-0.03,0-0.05,0-0.08-0.01c-0.28-0.04-0.47-0.31-0.43-0.59l0.67-4.28
				c0.04-0.28,0.31-0.47,0.59-0.43c0.28,0.04,0.47,0.31,0.43,0.59l-0.67,4.28C126.55,55.74,126.33,55.92,126.08,55.92z"/>
		</g>
		<g>
			<path class="st6" d="M168.62,51.86c0.07-0.08,3.26-2.71,5.83-4.84c1.93-1.59,4.65-1.8,6.8-0.52h0c2.35,1.4,3.44,4.22,2.63,6.83
				l0,0c-0.77,2.48-2.61,4.49-5.02,5.46l-8.44,3.39L168.62,51.86z"/>
			<path class="st15" d="M170.65,57.35c-0.08,0-0.17-0.02-0.25-0.06c-0.25-0.14-0.34-0.45-0.2-0.7c4.82-8.73,10.35-7.41,10.58-7.35
				c0.27,0.07,0.44,0.35,0.37,0.63c-0.07,0.27-0.35,0.44-0.62,0.37c-0.2-0.05-5.02-1.13-9.42,6.85
				C171,57.25,170.83,57.35,170.65,57.35z"/>
			<path class="st15" d="M176.13,55.92c-0.25,0-0.47-0.18-0.51-0.43l-0.67-4.28c-0.04-0.28,0.15-0.54,0.43-0.59
				c0.28-0.04,0.54,0.15,0.59,0.43l0.67,4.28c0.04,0.28-0.15,0.54-0.43,0.59C176.19,55.92,176.16,55.92,176.13,55.92z"/>
		</g>
	</g>
	<path class="st6" d="M163.05,27.01c-0.82,5.42-3,9.42-4.92,12.02c-1.68,2.29-4.35,3.62-7.19,3.62h-15.68
		c-3.07,0-5.56,2.49-5.56,5.56v10.04c0,8.44,4.16,16.5,11.35,20.92c2.88,1.77,6.25,3.01,10.05,3.01c3.76,0,7.11-1.22,9.97-2.96
		c7.24-4.41,11.43-12.49,11.43-20.97V47.32c0-1.76-0.79-3.47-2.24-4.46C163.69,38.33,163.05,27.01,163.05,27.01z"/>
	<g>
		<path class="st5" d="M150.33,40.84c-0.1,0-0.2-0.03-0.29-0.09c-0.23-0.16-0.3-0.48-0.14-0.71c4.79-7.03,6.4-18.3,6.42-18.41
			c0.04-0.28,0.3-0.48,0.58-0.44c0.28,0.04,0.48,0.3,0.44,0.58c-0.07,0.47-1.66,11.62-6.58,18.85
			C150.66,40.76,150.5,40.84,150.33,40.84z"/>
		<path class="st5" d="M142.96,40.84c-0.1,0-0.2-0.03-0.29-0.09c-0.23-0.16-0.3-0.48-0.14-0.71c4.79-7.03,6.4-18.3,6.42-18.41
			c0.04-0.28,0.3-0.48,0.58-0.44c0.28,0.04,0.48,0.3,0.44,0.58c-0.07,0.47-1.66,11.62-6.58,18.85
			C143.29,40.76,143.13,40.84,142.96,40.84z"/>
		<path class="st5" d="M135.59,40.84c-0.1,0-0.2-0.03-0.29-0.09c-0.23-0.16-0.3-0.48-0.14-0.71c4.79-7.03,6.4-18.3,6.42-18.41
			c0.04-0.28,0.29-0.48,0.58-0.44c0.28,0.04,0.48,0.3,0.44,0.58c-0.07,0.47-1.66,11.62-6.58,18.85
			C135.92,40.76,135.75,40.84,135.59,40.84z"/>
	</g>
	<g>
		<path class="st11" d="M143.43,53.24c0,1.33-1.08,2.41-2.41,2.41c-1.33,0-2.41-1.08-2.41-2.41c0-1.33,1.08-2.41,2.41-2.41
			C142.35,50.84,143.43,51.91,143.43,53.24z"/>
		<path class="st11" d="M163.6,53.24c0,1.33-1.08,2.41-2.41,2.41c-1.33,0-2.41-1.08-2.41-2.41c0-1.33,1.08-2.41,2.41-2.41
			C162.52,50.84,163.6,51.91,163.6,53.24z"/>
	</g>
	<path class="st15" d="M153.2,62.21h-3.7c-1.12,0-2.06-0.69-2.41-1.75c-0.34-1.06,0.02-2.17,0.92-2.83l2.13-1.55v-7.12
		c0-0.28,0.23-0.51,0.51-0.51c0.28,0,0.51,0.23,0.51,0.51v7.38c0,0.16-0.08,0.32-0.21,0.42l-2.35,1.7
		c-0.65,0.47-0.71,1.18-0.55,1.68c0.16,0.5,0.62,1.04,1.43,1.04h3.7c0.28,0,0.51,0.23,0.51,0.51
		C153.71,61.98,153.48,62.21,153.2,62.21z"/>
	<g>
		<path class="st4" d="M164.68,47.16c-4.54-1.85-7.42-0.16-7.54-0.08l-1.18-1.89c0.16-0.1,3.91-2.39,9.55-0.09L164.68,47.16z"/>
		<path class="st4" d="M137.53,47.16l-0.84-2.06c5.64-2.3,9.4-0.01,9.55,0.09l-1.18,1.88l0.59-0.94l-0.58,0.95
			C144.95,47.01,142.06,45.31,137.53,47.16z"/>
	</g>
	<path class="st15" d="M148.9,107.18l-13.24-5.07c-0.27-0.1-0.4-0.4-0.3-0.66c0.1-0.27,0.4-0.4,0.66-0.3l13.24,5.07
		c0.27,0.1,0.4,0.4,0.3,0.66"/>
	<g>
		
			<ellipse transform="matrix(0.7071 -0.7071 0.7071 0.7071 -4.3519 116.729)" class="st16" cx="138.73" cy="63.62" rx="3.64" ry="3.64"/>
		
			<ellipse transform="matrix(0.7071 -0.7071 0.7071 0.7071 2.8994 134.2351)" class="st16" cx="163.49" cy="63.62" rx="3.64" ry="3.64"/>
	</g>
</g>
</svg>
