
<svg id="Grupo_60" data-name="Grupo 60" xmlns="http://www.w3.org/2000/svg" xmlns:xlink="http://www.w3.org/1999/xlink" width="68.909" height="68.911" viewBox="0 0 68.909 68.911">
  <defs>
    <clipPath id="clip-path">
      <rect id="Retângulo_41" data-name="Retângulo 41" width="68.909" height="68.911" transform="translate(0 0)" fill="#f28a33"/>
    </clipPath>
  </defs>
  <g id="Grupo_59" data-name="Grupo 59" clip-path="url(#clip-path)">
    <path id="Caminho_224" data-name="Caminho 224" d="M51.694,29.153c-.042-1.6-.1-3.2-.264-4.786a7.082,7.082,0,0,0-5.987-6.683,33.592,33.592,0,0,0-5.641-.438c-3.568-.065-7.138-.057-10.707,0a38.517,38.517,0,0,0-5.328.367A6.875,6.875,0,0,0,17.8,22.848a12.419,12.419,0,0,0-.451,3c-.091,3.812-.147,7.627-.134,11.44.009,2.427.064,4.862.275,7.278A7.067,7.067,0,0,0,23.575,51.3a34.746,34.746,0,0,0,5.6.406c3.521.059,7.045.043,10.568.005,1.612-.018,3.228-.107,4.832-.266a7.694,7.694,0,0,0,4.112-1.6,7.8,7.8,0,0,0,2.828-6.075c.156-3.209.188-6.424.273-9.636l-.085,0c0-1.662.034-3.324-.01-4.984M34.443,45.291a10.815,10.815,0,1,1,10.826-10.8,10.773,10.773,0,0,1-10.826,10.8m11.251-19.51a2.57,2.57,0,0,1-2.544-2.56,2.532,2.532,0,0,1,2.526-2.513,2.483,2.483,0,0,1,2.547,2.516,2.536,2.536,0,0,1-2.529,2.557" fill="#f28a33"/>
    <path id="Caminho_225" data-name="Caminho 225" d="M34.459,27.46a7.017,7.017,0,1,0,7.012,7.021,7.05,7.05,0,0,0-7.012-7.021" fill="#f28a33"/>
    <path id="Caminho_226" data-name="Caminho 226" d="M34.454,0A34.456,34.456,0,1,0,68.909,34.456,34.455,34.455,0,0,0,34.454,0M55.473,41.133a20.391,20.391,0,0,1-.825,6.512,10.585,10.585,0,0,1-8.5,7.383,34.114,34.114,0,0,1-5.824.474c-4.167.064-8.335.038-12.5-.006a20.541,20.541,0,0,1-6.513-.819,10.585,10.585,0,0,1-7.4-8.484,33.589,33.589,0,0,1-.476-5.823c-.065-4.183-.04-8.368.006-12.551a20.423,20.423,0,0,1,.825-6.512,10.582,10.582,0,0,1,8.5-7.381,39.5,39.5,0,0,1,5.824-.479c1.966-.077,3.937-.017,5.906-.017v-.059c2.829.05,5.659.078,8.487.157a13.8,13.8,0,0,1,6.969,1.809,10.486,10.486,0,0,1,5.06,7.421,37.667,37.667,0,0,1,.473,5.824c.064,4.183.04,8.368-.006,12.551" fill="#f28a33"/>
  </g>
</svg>