<?xml version="1.0" encoding="utf-8"?>
<!-- Generator: Adobe Illustrator 25.2.1, SVG Export Plug-In . SVG Version: 6.00 Build 0)  -->
<svg version="1.1" id="Camada_1" xmlns="http://www.w3.org/2000/svg" xmlns:xlink="http://www.w3.org/1999/xlink" x="0px" y="0px"
	 viewBox="0 0 30 30" style="enable-background:new 0 0 30 30;" xml:space="preserve">
<style type="text/css">
	.st0{fill:#FFFFFF;}
</style>
<path class="st0" d="M25.6,9.8c-0.1,0.1-3.1,1.7-3.1,5.3c0.1,4.1,3.7,5.5,3.8,5.5c-0.1,0.1-0.5,2-1.9,3.9C23.2,26.3,22,28,20.1,28
	c-1.8,0-2.4-1.1-4.5-1.1c-2.2,0-2.9,1.1-4.6,1.1c-1.9,0-3.2-1.8-4.4-3.5c-1.5-2.2-2.8-5.7-2.9-9c0-1.8,0.3-3.5,1.2-5
	C6.1,8.5,8.3,7.1,10.6,7c1.8-0.1,3.4,1.2,4.5,1.2c1.1,0,3-1.2,5.3-1.2C21.4,7,24,7.3,25.6,9.8z M15,6.7c-0.3-1.6,0.6-3.2,1.4-4.2
	c1.1-1.2,2.7-2.1,4.2-2.1C20.7,2,20.1,3.5,19,4.7C18.1,5.9,16.5,6.9,15,6.7z"/>
</svg>
