<svg id="Grupo_58" data-name="Grupo 58" xmlns="http://www.w3.org/2000/svg" xmlns:xlink="http://www.w3.org/1999/xlink" width="178.176" height="106.601" viewBox="0 0 178.176 106.601">
  <defs>
    <clipPath id="clip-path">
      <rect id="Retângulo_3" data-name="Retângulo 3" width="178.176" height="106.601" fill="#f28a33"/>
    </clipPath>
  </defs>
  <g id="Grupo_1" data-name="Grupo 1" clip-path="url(#clip-path)">
    <path id="Caminho_1" data-name="Caminho 1" d="M53.329,85.865q-6.571-5.64-13.056-11.377-2.836-2.512-5.654-5.043Q33.008,68,31.4,66.546l-1.468-1.331c2.805-2.213,9.486-8.279,10.419-9.183,3.374-3.272,6.023-7.208,6.5-11.973a12.138,12.138,0,0,0-4.644-11.185c-3.769-2.7-8.419-2.5-12.787-1.779C19.87,32.671,9.778,34.983,1.753,40.649c-4.144,2.925-.179,9.818,4.011,6.86A42.979,42.979,0,0,1,18.6,41.593q.085,26.82-2.295,53.56c-.456,5.092,7.492,5.06,7.945,0Q25.272,83.693,25.835,72.2q10.809,9.785,21.876,19.28c3.861,3.314,9.506-2.281,5.618-5.618M26.538,39.687c1.384-.275,2.769-.533,4.147-.78,2.957-.529,7.589-1.136,8.25,2.81.64,3.815-2.31,6.959-4.879,9.337-2.41,2.23-5.136,4.192-7.678,6.319q.213-8.839.159-17.686" transform="translate(0 -13.247)" fill="#f28a33"/>
    <path id="Caminho_2" data-name="Caminho 2" d="M106.105,72.258c.011-.049.02-.091.036-.149a8.371,8.371,0,0,0-.089-1.722c-.008-1.55.078-3.107.146-4.659a3.15,3.15,0,0,0,.865-2.492,13.848,13.848,0,0,0-.675-2.818l.242-6.992c.14-4.055-5.408-5.249-7.4-2-.171.277-.33.559-.487.842a14.718,14.718,0,0,0-9.409-.835C81.137,53.406,74.094,62.884,74.442,71.3c.372,8.986,11.137,12.4,18.124,8.245A16.671,16.671,0,0,0,98.4,73.613c1.112,4.9,6.445,9.213,11.315,5.758,4.005-2.841.416-9.393-3.613-7.113M92.177,68.625c-1.115,1.949-2.714,4.063-5,4.651-1.382.356-3.761.192-4.557-1.239-1.04-1.871.623-5.071,1.545-6.73A13.147,13.147,0,0,1,89.41,59.84a8.726,8.726,0,0,1,6.37-.306,48.236,48.236,0,0,1-3.6,9.091M106.1,72.281c.661-.263-.259,1.138,0,0" transform="translate(-32.191 -21.434)" fill="#f28a33"/>
    <path id="Caminho_3" data-name="Caminho 3" d="M171.1,52.379c-1.5-5.111-3.479-12.167-10.041-12.049-5.788.1-9.163,6.136-11.448,10.666q-.113-1.627-.226-3.254c-.352-5.072-8.3-5.111-7.945,0q.776,11.2,1.554,22.4c.293,4.23,6.772,5.68,7.8,1.056a69.887,69.887,0,0,1,4.04-12.744c.823-1.887,1.744-3.735,2.734-5.54.65-1.187,1.928-4.1,3.406-4.489a1.047,1.047,0,0,0,.132-.043.837.837,0,0,0,.255.281c.628.507.894,2.161,1.135,2.865q1,2.939,1.75,5.958a68.746,68.746,0,0,1,1.9,13.268c.241,5.09,8.187,5.12,7.945,0a78.367,78.367,0,0,0-2.99-18.377" transform="translate(-61.169 -17.442)" fill="#f28a33"/>
    <path id="Caminho_4" data-name="Caminho 4" d="M217.164,23.876a41.994,41.994,0,0,1,4.884-11.141,22.9,22.9,0,0,1,1.992-2.658c.085-.1.768-.739,1.273-1.249a6.731,6.731,0,0,1,.514.794,10.24,10.24,0,0,1,1.1,3.164c1.052,5,8.712,2.884,7.661-2.112C233.705,6.458,230.4-.046,225.307,0c-4.56.041-8.481,6.027-10.583,9.462-5.466,8.934-7.405,19.889-8.876,30.1A178.763,178.763,0,0,0,204.1,58.235c-.187,4.905-.562,11.891,3.177,15.711,3.767,3.849,9.756,1.144,13.227-1.748,3.509-2.923,5.682-7.1,7.319-11.279a79.878,79.878,0,0,0,4.429-18.209c.365-2.679-.017-5.446-2.61-6.913-2.693-1.523-6.807-1.276-9.806-1.622-2.149-.248-3.951,2-3.972,3.972-.024,2.351,1.85,3.728,3.972,3.972,1.424.165,2.847.325,4.27.493l.021,0c-.131.78-.138,1.74-.233,2.253Q223.5,47,223.014,49.1a50.412,50.412,0,0,1-3.96,12.1,17.618,17.618,0,0,1-3.034,4.347,8.858,8.858,0,0,1-2.207,1.675,4.015,4.015,0,0,1-1.047.463,51.284,51.284,0,0,1-.491-13.876,137.758,137.758,0,0,1,4.89-29.94" transform="translate(-88.227 0)" fill="#f28a33"/>
    <path id="Caminho_5" data-name="Caminho 5" d="M272.205,29.7c-8.553.372-14.079,7.6-16.12,15.3a3.661,3.661,0,0,0,1.466,4.119A12.775,12.775,0,0,0,271.56,61.344c8.515-.772,14.019-8.357,14.435-16.5.418-8.191-5.194-15.511-13.79-15.139m.76,23.241c-3.344,1.4-8.386-.525-7.471-4.824a3.851,3.851,0,0,0-.923-3.53c1.182-3.008,3.134-5.84,6.368-6.709,3.922-1.054,6.756,1.3,7.106,5.258.337,3.8-1.359,8.247-5.08,9.8" transform="translate(-110.693 -12.841)" fill="#f28a33"/>
    <path id="Caminho_6" data-name="Caminho 6" d="M187.619,131.325Q125.9,138.341,64.32,149.4q-17.49,3.147-34.96,6.624c-3.3.657-2.336,7.981.956,7.326q61.165-12.161,122.545-20.3,17.161-2.266,34.331-4.215c1.405-.159,2.647-1.411,2.788-3.612.119-1.848-.966-4.063-2.36-3.9" transform="translate(-11.812 -56.795)" fill="#f28a33"/>
  </g>
</svg>