<svg xmlns="http://www.w3.org/2000/svg" viewBox="0 0 43.28 35.63"><defs><style>.cls-1{fill:#3cf;}</style></defs><g id="Camada_2" data-name="Camada 2"><g id="ELEMENTS"><path class="cls-1" d="M43.11,4.27a18.12,18.12,0,0,1-4.38,1.25c.7-.12,1.74-1.39,2.15-1.91A8,8,0,0,0,42.33,1c0-.07.07-.17,0-.23a.28.28,0,0,0-.24,0,22.19,22.19,0,0,1-5.19,2,.34.34,0,0,1-.36-.1,3.93,3.93,0,0,0-.45-.46A9.27,9.27,0,0,0,33.58.64,8.65,8.65,0,0,0,29.72,0a9.21,9.21,0,0,0-3.66,1,9.54,9.54,0,0,0-2.95,2.41A9,9,0,0,0,21.35,7a9.56,9.56,0,0,0-.09,3.73c0,.21,0,.24-.18.21C14,9.87,8,7.32,3.24,1.85c-.2-.24-.32-.24-.49,0C.65,5,1.67,10.07,4.29,12.55c.35.33.71.66,1.1,1a9,9,0,0,1-3.44-1c-.21-.13-.31-.05-.33.18a5.91,5.91,0,0,0,0,1A9.15,9.15,0,0,0,7.31,21a4.69,4.69,0,0,0,1.14.35,10,10,0,0,1-3.37.11c-.25-.05-.34.07-.25.31,1.49,4.05,4.69,5.25,7.09,5.94.32.05.65.05,1,.13,0,0,0,0-.06.06C12,29.15,9.27,30.05,8,30.5a17.39,17.39,0,0,1-7.36.95c-.39-.06-.48-.06-.58,0s0,.16.11.26c.5.33,1,.62,1.53.91a24.28,24.28,0,0,0,4.92,2C15.45,37,25.4,35.23,32,28.64c5.21-5.18,7-12.32,7-19.46,0-.28.33-.44.52-.58A17.42,17.42,0,0,0,43.06,5a1.12,1.12,0,0,0,.22-.69v0C43.28,4.16,43.28,4.19,43.11,4.27Z"/></g></g></svg>