<svg xmlns="http://www.w3.org/2000/svg" viewBox="0 0 1440 320"><path fill="black" fill-opacity="1" d="M0,96L21.8,90.7C43.6,85,87,75,131,101.3C174.5,128,218,192,262,229.3C305.5,267,349,277,393,272C436.4,267,480,245,524,250.7C567.3,256,611,288,655,272C698.2,256,742,192,785,186.7C829.1,181,873,235,916,240C960,245,1004,203,1047,208C1090.9,213,1135,267,1178,261.3C1221.8,256,1265,192,1309,154.7C1352.7,117,1396,107,1418,101.3L1440,96L1440,320L1418.2,320C1396.4,320,1353,320,1309,320C1265.5,320,1222,320,1178,320C1134.5,320,1091,320,1047,320C1003.6,320,960,320,916,320C872.7,320,829,320,785,320C741.8,320,698,320,655,320C610.9,320,567,320,524,320C480,320,436,320,393,320C349.1,320,305,320,262,320C218.2,320,175,320,131,320C87.3,320,44,320,22,320L0,320Z"></path></svg>